# Blender 3.6.13
# www.blender.org
mtllib mob1.mtl
o Cube
v -0.532928 -1.866960 -1.181710
v -0.532928 1.866960 -1.181710
v 0.532928 -1.866960 -1.181710
v 0.532928 1.866960 -1.181710
v -0.532928 -1.866960 0.000000
v -0.532928 1.866960 0.000000
v 0.532928 -1.866960 0.000000
v 0.532928 1.866960 0.000000
v -0.532928 -1.866960 1.181710
v -0.532928 1.866960 1.181710
v 0.532928 -1.866960 1.181710
v 0.532928 1.866960 1.181710
vn -1.0000 -0.0000 -0.0000
vn -0.0000 -0.0000 -1.0000
vn 1.0000 -0.0000 -0.0000
vn -0.0000 1.0000 -0.0000
vn -0.0000 -1.0000 -0.0000
vn -0.0000 -0.0000 1.0000
vt 0.375000 0.125000
vt 0.625000 0.125000
vt 0.625000 0.250000
vt 0.375000 0.250000
vt 0.625000 0.500000
vt 0.375000 0.500000
vt 0.625000 0.625000
vt 0.375000 0.625000
vt 0.875000 0.500000
vt 0.875000 0.625000
vt 0.125000 0.500000
vt 0.125000 0.625000
s 0
usemtl Material.001
f 5/1/1 6/2/1 2/3/1 1/4/1
f 1/4/2 2/3/2 4/5/2 3/6/2
f 3/6/3 4/5/3 8/7/3 7/8/3
f 4/5/4 2/9/4 6/10/4 8/7/4
f 1/11/5 3/6/5 7/8/5 5/12/5
f 5/1/1 9/4/1 10/3/1 6/2/1
f 9/4/6 11/6/6 12/5/6 10/3/6
f 11/6/3 7/8/3 8/7/3 12/5/3
f 12/5/4 8/7/4 6/10/4 10/9/4
f 9/11/5 5/12/5 7/8/5 11/6/5
o Sphere
v 0.622514 1.268776 -0.643802
v 0.705010 1.186281 -0.643802
v 0.749656 1.078496 -0.643802
v 0.755401 1.020163 -0.643802
v 0.749656 0.961830 -0.643802
v 0.705010 0.854044 -0.643802
v 0.568622 1.296407 -0.621479
v 0.619323 1.268776 -0.611394
v 0.663762 1.231591 -0.602554
v 0.700233 1.186281 -0.595300
v 0.727333 1.134587 -0.589909
v 0.744021 1.078496 -0.586590
v 0.749656 1.020163 -0.585469
v 0.744021 0.961830 -0.586590
v 0.727333 0.905738 -0.589909
v 0.700233 0.854044 -0.595300
v 0.663762 0.808734 -0.602554
v 0.619323 0.771549 -0.611394
v 0.568622 0.743918 -0.621479
v 0.562110 1.296407 -0.600014
v 0.609869 1.268776 -0.580231
v 0.651731 1.231591 -0.562892
v 0.686085 1.186281 -0.548662
v 0.711613 1.134587 -0.538088
v 0.727333 1.078496 -0.531576
v 0.732641 1.020163 -0.529378
v 0.727333 0.961830 -0.531576
v 0.711613 0.905738 -0.538088
v 0.686085 0.854044 -0.548662
v 0.651731 0.808734 -0.562892
v 0.609869 0.771549 -0.580231
v 0.562110 0.743918 -0.600014
v 0.551536 1.296407 -0.580231
v 0.594518 1.268776 -0.551512
v 0.632193 1.231591 -0.526338
v 0.663111 1.186281 -0.505680
v 0.686085 1.134587 -0.490329
v 0.700233 1.078496 -0.480876
v 0.705010 1.020163 -0.477684
v 0.700233 0.961830 -0.480876
v 0.686085 0.905738 -0.490329
v 0.663111 0.854044 -0.505680
v 0.632193 0.808734 -0.526338
v 0.594518 0.771549 -0.551512
v 0.551536 0.743918 -0.580231
v 0.537306 1.296407 -0.562892
v 0.573859 1.268776 -0.526338
v 0.605899 1.231591 -0.494299
v 0.632192 1.186281 -0.468006
v 0.651731 1.134587 -0.448467
v 0.663762 1.078496 -0.436436
v 0.667825 1.020163 -0.432373
v 0.663762 0.961830 -0.436436
v 0.651731 0.905738 -0.448467
v 0.632192 0.854044 -0.468006
v 0.605899 0.808734 -0.494299
v 0.573859 0.771549 -0.526338
v 0.537306 0.743918 -0.562892
v 0.548687 1.268776 -0.505679
v 0.573859 1.231591 -0.468006
v 0.594518 1.186281 -0.437087
v 0.609869 1.134587 -0.414113
v 0.619323 1.078496 -0.399965
v 0.622514 1.020163 -0.395188
v 0.619323 0.961830 -0.399965
v 0.609869 0.905738 -0.414113
v 0.594518 0.854044 -0.437087
v 0.573859 0.808734 -0.468006
v 0.548687 0.771549 -0.505679
v 0.537306 1.231591 -0.448467
v 0.551536 1.186281 -0.414113
v 0.562110 1.134587 -0.388585
v 0.568622 1.078496 -0.372865
v 0.570820 1.020163 -0.367557
v 0.568622 0.961830 -0.372865
v 0.562110 0.905738 -0.388585
v 0.551536 0.854044 -0.414113
v 0.537306 0.808734 -0.448467
v 0.537306 1.231591 -0.839136
v 0.551536 1.186281 -0.873491
v 0.562110 1.134587 -0.899019
v 0.568622 1.078496 -0.914738
v 0.570820 1.020163 -0.920046
v 0.568622 0.961830 -0.914738
v 0.562110 0.905738 -0.899019
v 0.551536 0.854044 -0.873491
v 0.537306 0.808734 -0.839136
v 0.548687 1.268776 -0.781924
v 0.573859 1.231591 -0.819598
v 0.594518 1.186281 -0.850516
v 0.609869 1.134587 -0.873491
v 0.619323 1.078496 -0.887638
v 0.622514 1.020163 -0.892415
v 0.619323 0.961830 -0.887638
v 0.609869 0.905738 -0.873491
v 0.594518 0.854044 -0.850516
v 0.573859 0.808734 -0.819598
v 0.548687 0.771549 -0.781924
v 0.537306 1.296407 -0.724712
v 0.573859 1.268776 -0.761265
v 0.605899 1.231591 -0.793304
v 0.632192 1.186281 -0.819598
v 0.651731 1.134587 -0.839136
v 0.663762 1.078496 -0.851168
v 0.667825 1.020163 -0.855230
v 0.663762 0.961830 -0.851168
v 0.651731 0.905738 -0.839136
v 0.632192 0.854044 -0.819598
v 0.605899 0.808734 -0.793304
v 0.573859 0.771549 -0.761265
v 0.537306 0.743918 -0.724712
v 0.551536 1.296407 -0.707373
v 0.594518 1.268776 -0.736092
v 0.632192 1.231591 -0.761265
v 0.663111 1.186281 -0.781924
v 0.686085 1.134587 -0.797275
v 0.700233 1.078496 -0.806728
v 0.705009 1.020163 -0.809920
v 0.700233 0.961830 -0.806728
v 0.686085 0.905738 -0.797275
v 0.663111 0.854044 -0.781924
v 0.632192 0.808734 -0.761265
v 0.594518 0.771549 -0.736092
v 0.551536 0.743918 -0.707373
v 0.562110 1.296407 -0.687590
v 0.609869 1.268776 -0.707373
v 0.651731 1.231591 -0.724712
v 0.686085 1.186281 -0.738942
v 0.711613 1.134587 -0.749516
v 0.727333 1.078496 -0.756027
v 0.732641 1.020163 -0.758226
v 0.727333 0.961830 -0.756027
v 0.711613 0.905738 -0.749516
v 0.686085 0.854044 -0.738942
v 0.651731 0.808734 -0.724712
v 0.609869 0.771549 -0.707373
v 0.562110 0.743918 -0.687590
v 0.568622 1.296407 -0.666125
v 0.619322 1.268776 -0.676210
v 0.663762 1.231591 -0.685049
v 0.700233 1.186281 -0.692304
v 0.727333 1.134587 -0.697695
v 0.744021 1.078496 -0.701014
v 0.749655 1.020163 -0.702135
v 0.744021 0.961830 -0.701014
v 0.727333 0.905738 -0.697695
v 0.700233 0.854044 -0.692304
v 0.663762 0.808734 -0.685049
v 0.619322 0.771549 -0.676210
v 0.568622 0.743918 -0.666125
v 0.570820 1.296407 -0.643802
v 0.667825 1.231591 -0.643802
v 0.732641 1.134587 -0.643802
v 0.732641 0.905738 -0.643802
v 0.667825 0.808734 -0.643802
v 0.622514 0.771549 -0.643802
v 0.570820 0.743918 -0.643802
v 0.622514 1.268776 0.643802
v 0.705010 1.186281 0.643802
v 0.749656 1.078496 0.643802
v 0.755401 1.020163 0.643802
v 0.749656 0.961830 0.643802
v 0.705010 0.854044 0.643802
v 0.568622 1.296407 0.621479
v 0.619323 1.268776 0.611394
v 0.663762 1.231591 0.602554
v 0.700233 1.186281 0.595300
v 0.727333 1.134587 0.589909
v 0.744021 1.078496 0.586590
v 0.749656 1.020163 0.585469
v 0.744021 0.961830 0.586590
v 0.727333 0.905738 0.589909
v 0.700233 0.854044 0.595300
v 0.663762 0.808734 0.602554
v 0.619323 0.771549 0.611394
v 0.568622 0.743918 0.621479
v 0.562110 1.296407 0.600014
v 0.609869 1.268776 0.580231
v 0.651731 1.231591 0.562892
v 0.686085 1.186281 0.548662
v 0.711613 1.134587 0.538088
v 0.727333 1.078496 0.531576
v 0.732641 1.020163 0.529378
v 0.727333 0.961830 0.531576
v 0.711613 0.905738 0.538088
v 0.686085 0.854044 0.548662
v 0.651731 0.808734 0.562892
v 0.609869 0.771549 0.580231
v 0.562110 0.743918 0.600014
v 0.551536 1.296407 0.580231
v 0.594518 1.268776 0.551512
v 0.632193 1.231591 0.526338
v 0.663111 1.186281 0.505680
v 0.686085 1.134587 0.490329
v 0.700233 1.078496 0.480876
v 0.705010 1.020163 0.477684
v 0.700233 0.961830 0.480876
v 0.686085 0.905738 0.490329
v 0.663111 0.854044 0.505680
v 0.632193 0.808734 0.526338
v 0.594518 0.771549 0.551512
v 0.551536 0.743918 0.580231
v 0.537306 1.296407 0.562892
v 0.573859 1.268776 0.526338
v 0.605899 1.231591 0.494299
v 0.632192 1.186281 0.468006
v 0.651731 1.134587 0.448467
v 0.663762 1.078496 0.436436
v 0.667825 1.020163 0.432373
v 0.663762 0.961830 0.436436
v 0.651731 0.905738 0.448467
v 0.632192 0.854044 0.468006
v 0.605899 0.808734 0.494299
v 0.573859 0.771549 0.526338
v 0.537306 0.743918 0.562892
v 0.548687 1.268776 0.505679
v 0.573859 1.231591 0.468006
v 0.594518 1.186281 0.437087
v 0.609869 1.134587 0.414113
v 0.619323 1.078496 0.399965
v 0.622514 1.020163 0.395188
v 0.619323 0.961830 0.399965
v 0.609869 0.905738 0.414113
v 0.594518 0.854044 0.437087
v 0.573859 0.808734 0.468006
v 0.548687 0.771549 0.505679
v 0.537306 1.231591 0.448467
v 0.551536 1.186281 0.414113
v 0.562110 1.134587 0.388585
v 0.568622 1.078496 0.372865
v 0.570820 1.020163 0.367557
v 0.568622 0.961830 0.372865
v 0.562110 0.905738 0.388585
v 0.551536 0.854044 0.414113
v 0.537306 0.808734 0.448467
v 0.537306 1.231591 0.839136
v 0.551536 1.186281 0.873491
v 0.562110 1.134587 0.899019
v 0.568622 1.078496 0.914738
v 0.570820 1.020163 0.920046
v 0.568622 0.961830 0.914738
v 0.562110 0.905738 0.899019
v 0.551536 0.854044 0.873491
v 0.537306 0.808734 0.839136
v 0.548687 1.268776 0.781924
v 0.573859 1.231591 0.819598
v 0.594518 1.186281 0.850516
v 0.609869 1.134587 0.873491
v 0.619323 1.078496 0.887638
v 0.622514 1.020163 0.892415
v 0.619323 0.961830 0.887638
v 0.609869 0.905738 0.873491
v 0.594518 0.854044 0.850516
v 0.573859 0.808734 0.819598
v 0.548687 0.771549 0.781924
v 0.537306 1.296407 0.724712
v 0.573859 1.268776 0.761265
v 0.605899 1.231591 0.793304
v 0.632192 1.186281 0.819598
v 0.651731 1.134587 0.839136
v 0.663762 1.078496 0.851168
v 0.667825 1.020163 0.855230
v 0.663762 0.961830 0.851168
v 0.651731 0.905738 0.839136
v 0.632192 0.854044 0.819598
v 0.605899 0.808734 0.793304
v 0.573859 0.771549 0.761265
v 0.537306 0.743918 0.724712
v 0.551536 1.296407 0.707373
v 0.594518 1.268776 0.736092
v 0.632192 1.231591 0.761265
v 0.663111 1.186281 0.781924
v 0.686085 1.134587 0.797275
v 0.700233 1.078496 0.806728
v 0.705009 1.020163 0.809920
v 0.700233 0.961830 0.806728
v 0.686085 0.905738 0.797275
v 0.663111 0.854044 0.781924
v 0.632192 0.808734 0.761265
v 0.594518 0.771549 0.736092
v 0.551536 0.743918 0.707373
v 0.562110 1.296407 0.687590
v 0.609869 1.268776 0.707373
v 0.651731 1.231591 0.724712
v 0.686085 1.186281 0.738942
v 0.711613 1.134587 0.749516
v 0.727333 1.078496 0.756027
v 0.732641 1.020163 0.758226
v 0.727333 0.961830 0.756027
v 0.711613 0.905738 0.749516
v 0.686085 0.854044 0.738942
v 0.651731 0.808734 0.724712
v 0.609869 0.771549 0.707373
v 0.562110 0.743918 0.687590
v 0.568622 1.296407 0.666125
v 0.619322 1.268776 0.676210
v 0.663762 1.231591 0.685049
v 0.700233 1.186281 0.692304
v 0.727333 1.134587 0.697695
v 0.744021 1.078496 0.701014
v 0.749655 1.020163 0.702135
v 0.744021 0.961830 0.701014
v 0.727333 0.905738 0.697695
v 0.700233 0.854044 0.692304
v 0.663762 0.808734 0.685049
v 0.619322 0.771549 0.676210
v 0.568622 0.743918 0.666125
v 0.570820 1.296407 0.643802
v 0.667825 1.231591 0.643802
v 0.732641 1.134587 0.643802
v 0.732641 0.905738 0.643802
v 0.667825 0.808734 0.643802
v 0.622514 0.771549 0.643802
v 0.570820 0.743918 0.643802
v 0.532928 1.307902 -0.643802
v 0.532928 1.307447 -0.628579
v 0.532928 0.732424 -0.643802
v 0.532928 0.732879 -0.628579
v 0.532928 0.734336 -0.612101
v 0.532928 1.305989 -0.612101
v 0.532928 0.737129 -0.592665
v 0.532928 1.303196 -0.592665
v 0.532928 0.742040 -0.567270
v 0.532928 1.298285 -0.567270
v 0.532928 0.756388 -0.529263
v 0.532928 0.743918 -0.559299
v 0.532928 1.296407 -0.559299
v 0.532928 1.283937 -0.529263
v 0.532928 1.268776 -0.497257
v 0.532928 1.240980 -0.459037
v 0.532928 0.799346 -0.459037
v 0.532928 0.771549 -0.497257
v 0.532928 0.854044 -0.408468
v 0.532928 0.808734 -0.447139
v 0.532928 1.231591 -0.447139
v 0.532928 1.186281 -0.408468
v 0.532928 1.134587 -0.379733
v 0.532928 1.078496 -0.362038
v 0.532928 1.020163 -0.356063
v 0.532928 0.961830 -0.362038
v 0.532928 0.905738 -0.379733
v 0.532928 1.134587 -0.907871
v 0.532928 1.078496 -0.925566
v 0.532928 1.020163 -0.931541
v 0.532928 0.961830 -0.925566
v 0.532928 0.905738 -0.907871
v 0.532928 0.854044 -0.879135
v 0.532928 1.231591 -0.840464
v 0.532928 1.240980 -0.828567
v 0.532928 0.808734 -0.840464
v 0.532928 1.186281 -0.879135
v 0.532928 0.799346 -0.828567
v 0.532928 1.268776 -0.790347
v 0.532928 1.283937 -0.758340
v 0.532928 0.771549 -0.790347
v 0.532928 0.756388 -0.758340
v 0.532928 0.743918 -0.728305
v 0.532928 0.742040 -0.720334
v 0.532928 1.296407 -0.728305
v 0.532928 1.298285 -0.720334
v 0.532928 0.737129 -0.694939
v 0.532928 1.303196 -0.694939
v 0.532928 0.734336 -0.675503
v 0.532928 1.305989 -0.675503
v 0.532928 0.732879 -0.659025
v 0.532928 1.307447 -0.659025
v 0.532928 1.307447 0.628579
v 0.532928 1.307902 0.643802
v 0.532928 0.732879 0.628579
v 0.532928 0.732424 0.643802
v 0.532928 0.734336 0.612101
v 0.532928 1.305989 0.612101
v 0.532928 0.737129 0.592665
v 0.532928 1.303196 0.592665
v 0.532928 0.742040 0.567270
v 0.532928 1.298285 0.567270
v 0.532928 0.756388 0.529263
v 0.532928 0.743918 0.559299
v 0.532928 1.296407 0.559299
v 0.532928 1.283937 0.529263
v 0.532928 1.268776 0.497257
v 0.532928 1.240980 0.459037
v 0.532928 0.799346 0.459037
v 0.532928 0.771549 0.497257
v 0.532928 0.808734 0.447139
v 0.532928 0.854044 0.408468
v 0.532928 1.186281 0.408468
v 0.532928 1.231591 0.447139
v 0.532928 1.134587 0.379733
v 0.532928 1.078496 0.362038
v 0.532928 1.020163 0.356063
v 0.532928 0.961830 0.362038
v 0.532928 0.905738 0.379733
v 0.532928 1.078496 0.925566
v 0.532928 1.134587 0.907871
v 0.532928 1.020163 0.931541
v 0.532928 0.961830 0.925566
v 0.532928 0.905738 0.907871
v 0.532928 0.854044 0.879135
v 0.532928 1.240980 0.828567
v 0.532928 1.231591 0.840464
v 0.532928 0.808734 0.840464
v 0.532928 1.186281 0.879135
v 0.532928 0.799346 0.828567
v 0.532928 1.283937 0.758340
v 0.532928 1.268776 0.790347
v 0.532928 0.771549 0.790347
v 0.532928 0.756388 0.758340
v 0.532928 0.742040 0.720334
v 0.532928 0.743918 0.728305
v 0.532928 1.298285 0.720334
v 0.532928 1.296407 0.728305
v 0.532928 0.737129 0.694939
v 0.532928 1.303196 0.694939
v 0.532928 0.734336 0.675503
v 0.532928 1.305989 0.675503
v 0.532928 0.732879 0.659025
v 0.532928 1.307447 0.659025
vn 1.0000 -0.0000 -0.0000
vn 0.9810 0.1939 -0.0000
vn 0.9622 0.1939 0.1914
vn 0.9808 -0.0000 0.1951
vn 0.9810 -0.1939 -0.0000
vn 0.9622 -0.1939 0.1914
vn 0.3804 0.9217 0.0757
vn 0.3879 0.9217 -0.0000
vn -0.5885 0.8085 -0.0000
vn -0.5907 0.8057 0.0446
vn 0.9248 -0.3805 -0.0000
vn 0.9070 -0.3805 0.1804
vn 0.5598 0.8286 -0.0000
vn 0.5490 0.8286 0.1092
vn 0.8333 -0.5528 -0.0000
vn 0.8173 -0.5528 0.1626
vn 0.7101 0.7041 -0.0000
vn 0.6965 0.7041 0.1385
vn 0.7101 -0.7041 -0.0000
vn 0.6965 -0.7041 0.1385
vn 0.8333 0.5528 -0.0000
vn 0.8173 0.5528 0.1626
vn 0.5598 -0.8286 -0.0000
vn 0.5490 -0.8286 0.1092
vn 0.9248 0.3805 -0.0000
vn 0.9070 0.3805 0.1804
vn 0.3879 -0.9217 -0.0000
vn 0.3804 -0.9217 0.0757
vn -0.5907 -0.8057 0.0446
vn -0.5885 -0.8085 -0.0000
vn 0.5172 -0.8286 0.2142
vn 0.3584 -0.9217 0.1484
vn 0.8544 0.3805 0.3539
vn 0.9063 0.1939 0.3754
vn -0.5972 -0.7974 0.0868
vn 0.9239 -0.0000 0.3827
vn 0.9063 -0.1939 0.3754
vn 0.3584 0.9217 0.1484
vn -0.5972 0.7974 0.0868
vn 0.8544 -0.3805 0.3539
vn 0.5172 0.8286 0.2142
vn 0.7699 -0.5528 0.3189
vn 0.6561 0.7041 0.2718
vn 0.6561 -0.7041 0.2718
vn 0.7699 0.5528 0.3189
vn 0.7689 -0.3805 0.5138
vn 0.6929 -0.5528 0.4630
vn 0.4654 0.8286 0.3110
vn 0.5905 0.7041 0.3945
vn 0.5905 -0.7041 0.3945
vn 0.6929 0.5528 0.4630
vn 0.4654 -0.8286 0.3110
vn 0.7689 0.3805 0.5138
vn 0.3225 -0.9217 0.2155
vn 0.8157 0.1939 0.5450
vn -0.6076 -0.7844 0.1246
vn 0.8315 -0.0000 0.5556
vn 0.8157 -0.1939 0.5450
vn 0.3225 0.9217 0.2155
vn -0.6076 0.7844 0.1246
vn 0.2743 -0.9217 0.2743
vn -0.6214 -0.7678 0.1563
vn 0.6937 0.1939 0.6937
vn 0.7071 -0.0000 0.7071
vn 0.6937 -0.1939 0.6937
vn 0.2743 0.9217 0.2743
vn -0.6214 0.7678 0.1563
vn 0.6539 -0.3805 0.6539
vn 0.3958 0.8286 0.3958
vn 0.5893 -0.5528 0.5893
vn 0.5021 0.7041 0.5021
vn 0.5021 -0.7041 0.5021
vn 0.5893 0.5528 0.5893
vn 0.3958 -0.8286 0.3958
vn 0.6539 0.3805 0.6539
vn 0.3110 0.8286 0.4654
vn 0.3945 0.7041 0.5905
vn 0.4630 -0.5528 0.6929
vn 0.3945 -0.7041 0.5905
vn 0.4630 0.5528 0.6929
vn 0.3110 -0.8286 0.4654
vn 0.5138 0.3805 0.7689
vn -0.5910 -0.7424 0.3155
vn -0.5860 -0.7625 0.2743
vn 0.5450 0.1939 0.8157
vn 0.5556 -0.0000 0.8315
vn 0.5450 -0.1939 0.8157
vn -0.5860 0.7625 0.2743
vn 0.5138 -0.3805 0.7689
vn -0.5910 0.7424 0.3155
vn 0.3754 0.1939 0.9063
vn 0.3827 -0.0000 0.9239
vn 0.3754 -0.1939 0.9063
vn 0.3539 -0.3805 0.8544
vn -0.5811 0.6897 0.4322
vn 0.3189 -0.5528 0.7699
vn 0.2718 0.7041 0.6561
vn -0.5915 0.6502 0.4768
vn 0.2718 -0.7041 0.6561
vn 0.3189 0.5528 0.7699
vn -0.5915 -0.6502 0.4768
vn -0.5811 -0.6897 0.4322
vn 0.3539 0.3805 0.8544
vn -0.6064 -0.5658 0.5587
vn -0.5919 -0.4529 0.6668
vn -0.5919 0.4529 0.6668
vn -0.6064 0.5658 0.5587
vn -0.5810 0.3164 0.7499
vn -0.5743 0.1627 0.8023
vn -0.5720 -0.0000 0.8203
vn -0.5743 -0.1627 0.8023
vn -0.5810 -0.3164 0.7499
vn -0.5810 0.3164 -0.7499
vn 0.3539 0.3805 -0.8544
vn 0.3754 0.1939 -0.9063
vn -0.5743 0.1627 -0.8023
vn 0.3827 -0.0000 -0.9239
vn -0.5720 -0.0000 -0.8203
vn 0.3754 -0.1939 -0.9063
vn -0.5743 -0.1627 -0.8023
vn 0.3539 -0.3805 -0.8544
vn -0.5810 -0.3164 -0.7499
vn 0.3189 -0.5528 -0.7699
vn -0.5919 -0.4529 -0.6668
vn -0.6064 0.5658 -0.5587
vn -0.5915 0.6502 -0.4768
vn 0.2718 0.7041 -0.6561
vn 0.2718 -0.7041 -0.6561
vn -0.6064 -0.5658 -0.5587
vn 0.3189 0.5528 -0.7699
vn -0.5919 0.4529 -0.6668
vn -0.5915 -0.6502 -0.4768
vn -0.5811 0.6897 -0.4322
vn -0.5910 0.7424 -0.3155
vn 0.3110 0.8286 -0.4654
vn 0.5138 -0.3805 -0.7689
vn 0.4630 -0.5528 -0.6929
vn 0.3945 0.7041 -0.5905
vn 0.3945 -0.7041 -0.5905
vn 0.4630 0.5528 -0.6929
vn 0.3110 -0.8286 -0.4654
vn -0.5811 -0.6897 -0.4322
vn 0.5138 0.3805 -0.7689
vn -0.5910 -0.7424 -0.3155
vn 0.5450 0.1939 -0.8157
vn 0.5556 -0.0000 -0.8315
vn 0.5450 -0.1939 -0.8157
vn 0.6539 0.3805 -0.6539
vn 0.6937 0.1939 -0.6937
vn -0.5860 -0.7625 -0.2743
vn 0.2743 -0.9217 -0.2743
vn -0.6214 -0.7678 -0.1563
vn 0.7071 -0.0000 -0.7071
vn 0.6937 -0.1939 -0.6937
vn -0.5860 0.7625 -0.2743
vn -0.6214 0.7678 -0.1563
vn 0.2743 0.9217 -0.2743
vn 0.6539 -0.3805 -0.6539
vn 0.3958 0.8286 -0.3958
vn 0.5893 -0.5528 -0.5893
vn 0.5021 0.7041 -0.5021
vn 0.5021 -0.7041 -0.5021
vn 0.5893 0.5528 -0.5893
vn 0.3958 -0.8286 -0.3958
vn 0.7689 -0.3805 -0.5138
vn 0.6929 -0.5528 -0.4630
vn 0.4654 0.8286 -0.3110
vn 0.5905 0.7041 -0.3945
vn 0.5905 -0.7041 -0.3945
vn 0.6929 0.5528 -0.4630
vn 0.4654 -0.8286 -0.3110
vn 0.7689 0.3805 -0.5138
vn 0.3225 -0.9217 -0.2155
vn 0.8157 0.1939 -0.5450
vn -0.6076 -0.7844 -0.1246
vn 0.8315 -0.0000 -0.5556
vn 0.8157 -0.1939 -0.5450
vn 0.3225 0.9217 -0.2155
vn -0.6076 0.7844 -0.1246
vn 0.3584 -0.9217 -0.1484
vn -0.5972 -0.7974 -0.0868
vn 0.9063 0.1939 -0.3754
vn 0.9239 -0.0000 -0.3827
vn 0.9063 -0.1939 -0.3754
vn 0.3584 0.9217 -0.1484
vn -0.5972 0.7974 -0.0868
vn 0.8544 -0.3805 -0.3539
vn 0.5172 0.8286 -0.2142
vn 0.7699 -0.5528 -0.3189
vn 0.6561 0.7041 -0.2718
vn 0.6561 -0.7041 -0.2718
vn 0.7699 0.5528 -0.3189
vn 0.5172 -0.8286 -0.2142
vn 0.8544 0.3805 -0.3539
vn 0.8173 -0.5528 -0.1626
vn 0.6965 -0.7041 -0.1385
vn 0.6965 0.7041 -0.1385
vn 0.8173 0.5528 -0.1626
vn 0.5490 -0.8286 -0.1092
vn 0.9070 0.3805 -0.1804
vn 0.3804 -0.9217 -0.0757
vn 0.9622 0.1939 -0.1914
vn -0.5907 -0.8057 -0.0446
vn 0.9808 -0.0000 -0.1951
vn 0.9622 -0.1939 -0.1914
vn 0.3804 0.9217 -0.0757
vn -0.5907 0.8057 -0.0446
vn 0.9070 -0.3805 -0.1804
vn 0.5490 0.8286 -0.1092
vn -1.0000 -0.0000 -0.0000
vt 0.750000 0.500000
vt 0.750000 0.562500
vt 0.718750 0.562500
vt 0.718750 0.500000
vt 0.750000 0.437500
vt 0.718750 0.437500
vt 0.718750 0.875000
vt 0.750000 0.875000
vt 0.750000 0.917221
vt 0.718750 0.915551
vt 0.750000 0.375000
vt 0.718750 0.375000
vt 0.750000 0.812500
vt 0.718750 0.812500
vt 0.750000 0.312500
vt 0.718750 0.312500
vt 0.750000 0.750000
vt 0.718750 0.750000
vt 0.750000 0.250000
vt 0.718750 0.250000
vt 0.750000 0.687500
vt 0.718750 0.687500
vt 0.750000 0.187500
vt 0.718750 0.187500
vt 0.750000 0.625000
vt 0.718750 0.625000
vt 0.750000 0.125000
vt 0.718750 0.125000
vt 0.718750 0.084449
vt 0.750000 0.082779
vt 0.687500 0.187500
vt 0.687500 0.125000
vt 0.687500 0.625000
vt 0.687500 0.562500
vt 0.687500 0.089805
vt 0.718750 0.084449
vt 0.687500 0.500000
vt 0.687500 0.437500
vt 0.687500 0.875000
vt 0.718750 0.915551
vt 0.687500 0.910195
vt 0.687500 0.375000
vt 0.687500 0.812500
vt 0.687500 0.312500
vt 0.687500 0.750000
vt 0.687500 0.250000
vt 0.687500 0.687500
vt 0.656250 0.375000
vt 0.656250 0.312500
vt 0.656250 0.812500
vt 0.656250 0.750000
vt 0.656250 0.250000
vt 0.656250 0.687500
vt 0.656250 0.187500
vt 0.656250 0.625000
vt 0.656250 0.125000
vt 0.656250 0.562500
vt 0.656250 0.100063
vt 0.656250 0.500000
vt 0.656250 0.437500
vt 0.656250 0.875000
vt 0.656250 0.899937
vt 0.625000 0.125000
vt 0.625000 0.118101
vt 0.656250 0.100063
vt 0.625000 0.562500
vt 0.625000 0.500000
vt 0.625000 0.437500
vt 0.625000 0.875000
vt 0.656250 0.899937
vt 0.625000 0.881899
vt 0.625000 0.375000
vt 0.625000 0.812500
vt 0.625000 0.312500
vt 0.625000 0.750000
vt 0.625000 0.250000
vt 0.625000 0.687500
vt 0.625000 0.187500
vt 0.625000 0.625000
vt 0.593750 0.812500
vt 0.593750 0.750000
vt 0.593750 0.312500
vt 0.593750 0.250000
vt 0.593750 0.687500
vt 0.593750 0.187500
vt 0.593750 0.625000
vt 0.593750 0.153207
vt 0.617110 0.125000
vt 0.593750 0.562500
vt 0.625000 0.118101
vt 0.593750 0.500000
vt 0.593750 0.437500
vt 0.617110 0.875000
vt 0.625000 0.881899
vt 0.593750 0.375000
vt 0.593750 0.846793
vt 0.562500 0.562500
vt 0.562500 0.500000
vt 0.562500 0.437500
vt 0.562500 0.375000
vt 0.576604 0.812500
vt 0.562500 0.312500
vt 0.562500 0.750000
vt 0.562500 0.765780
vt 0.562500 0.250000
vt 0.562500 0.687500
vt 0.562500 0.234220
vt 0.576604 0.187500
vt 0.562500 0.625000
vt 0.559051 0.250000
vt 0.550032 0.312500
vt 0.550032 0.687500
vt 0.559051 0.750000
vt 0.562500 0.234220
vt 0.559051 0.250000
vt 0.544902 0.625000
vt 0.542225 0.562500
vt 0.544902 0.625000
vt 0.541389 0.500000
vt 0.542225 0.437500
vt 0.541389 0.500000
vt 0.544902 0.375000
vt 0.544902 0.375000
vt 0.559051 0.750000
vt 0.562500 0.765780
vt 0.955098 0.625000
vt 0.937500 0.625000
vt 0.937500 0.562500
vt 0.957775 0.562500
vt 0.957775 0.562500
vt 0.937500 0.500000
vt 0.958611 0.500000
vt 0.937500 0.437500
vt 0.957775 0.437500
vt 0.937500 0.375000
vt 0.955098 0.375000
vt 0.937500 0.312500
vt 0.949968 0.312500
vt 0.940949 0.750000
vt 0.937500 0.765780
vt 0.937500 0.750000
vt 0.949968 0.312500
vt 0.937500 0.250000
vt 0.940949 0.250000
vt 0.937500 0.687500
vt 0.949968 0.687500
vt 0.937500 0.234220
vt 0.949968 0.687500
vt 0.923396 0.812500
vt 0.906250 0.846793
vt 0.906250 0.812500
vt 0.906250 0.375000
vt 0.906250 0.312500
vt 0.906250 0.750000
vt 0.937500 0.765780
vt 0.923396 0.812500
vt 0.906250 0.250000
vt 0.906250 0.687500
vt 0.906250 0.187500
vt 0.923396 0.187500
vt 0.937500 0.234220
vt 0.906250 0.625000
vt 0.923396 0.187500
vt 0.906250 0.153207
vt 0.906250 0.562500
vt 0.906250 0.500000
vt 0.906250 0.437500
vt 0.875000 0.625000
vt 0.875000 0.562500
vt 0.882890 0.125000
vt 0.875000 0.125000
vt 0.875000 0.118101
vt 0.875000 0.500000
vt 0.875000 0.437500
vt 0.882890 0.875000
vt 0.875000 0.881899
vt 0.875000 0.875000
vt 0.875000 0.375000
vt 0.875000 0.812500
vt 0.882890 0.875000
vt 0.875000 0.312500
vt 0.875000 0.750000
vt 0.875000 0.250000
vt 0.875000 0.687500
vt 0.875000 0.187500
vt 0.882890 0.125000
vt 0.843750 0.375000
vt 0.843750 0.312500
vt 0.843750 0.812500
vt 0.843750 0.750000
vt 0.843750 0.250000
vt 0.843750 0.687500
vt 0.843750 0.187500
vt 0.843750 0.625000
vt 0.843750 0.125000
vt 0.843750 0.562500
vt 0.843750 0.100063
vt 0.875000 0.118101
vt 0.843750 0.500000
vt 0.843750 0.437500
vt 0.843750 0.875000
vt 0.875000 0.881899
vt 0.843750 0.899937
vt 0.812500 0.125000
vt 0.812500 0.089805
vt 0.843750 0.100063
vt 0.812500 0.562500
vt 0.812500 0.500000
vt 0.812500 0.437500
vt 0.812500 0.875000
vt 0.843750 0.899937
vt 0.812500 0.910195
vt 0.812500 0.375000
vt 0.812500 0.812500
vt 0.812500 0.312500
vt 0.812500 0.750000
vt 0.812500 0.250000
vt 0.812500 0.687500
vt 0.812500 0.187500
vt 0.812500 0.625000
vt 0.781250 0.312500
vt 0.781250 0.250000
vt 0.781250 0.750000
vt 0.781250 0.687500
vt 0.781250 0.187500
vt 0.781250 0.625000
vt 0.781250 0.125000
vt 0.781250 0.562500
vt 0.781250 0.084449
vt 0.812500 0.089805
vt 0.781250 0.500000
vt 0.781250 0.437500
vt 0.781250 0.875000
vt 0.812500 0.910195
vt 0.781250 0.915551
vt 0.781250 0.375000
vt 0.781250 0.812500
vt 0.750000 0.917221
vt 0.750000 0.082779
vt 0.781250 0.084449
vt 0.750000 0.917221
vt 0.718750 0.084449
vt 0.625000 0.118101
vt 0.625000 0.881899
vt 0.562500 0.234220
vt 0.550032 0.687500
vt 0.559051 0.750000
vt 0.562500 0.234220
vt 0.544902 0.625000
vt 0.550032 0.312500
vt 0.958611 0.500000
vt 0.940949 0.250000
vt 0.923396 0.187500
vt 0.882890 0.875000
vt 0.843750 0.100063
vt 0.875000 0.118101
vt 0.875000 0.881899
vt 0.812500 0.089805
vt 0.843750 0.100063
vt 0.781250 0.084449
vt 0.750000 0.082779
vt 0.587539 0.558510
vt 0.587569 0.556899
vt 0.587538 0.555289
vt 0.587441 0.553546
vt 0.587254 0.551490
vt 0.586925 0.548804
vt 0.586799 0.547961
vt 0.585964 0.544784
vt 0.584949 0.541398
vt 0.583088 0.537355
vt 0.582460 0.536097
vt 0.579426 0.532006
vt 0.575965 0.528966
vt 0.572209 0.527095
vt 0.568304 0.526463
vt 0.564398 0.527095
vt 0.560643 0.528966
vt 0.557181 0.532006
vt 0.554148 0.536097
vt 0.553519 0.537355
vt 0.551658 0.541398
vt 0.550643 0.544784
vt 0.549808 0.547961
vt 0.549682 0.548804
vt 0.549354 0.551490
vt 0.549167 0.553546
vt 0.549069 0.555289
vt 0.549039 0.556899
vt 0.549069 0.558510
vt 0.549167 0.560253
vt 0.549354 0.562309
vt 0.549682 0.564995
vt 0.549808 0.565838
vt 0.550643 0.569015
vt 0.551658 0.572401
vt 0.553519 0.576444
vt 0.554148 0.577702
vt 0.557181 0.581793
vt 0.560643 0.584832
vt 0.564398 0.586704
vt 0.568304 0.587336
vt 0.572209 0.586704
vt 0.575965 0.584832
vt 0.579426 0.581793
vt 0.582460 0.577702
vt 0.583088 0.576444
vt 0.584949 0.572401
vt 0.585964 0.569015
vt 0.586799 0.565838
vt 0.586925 0.564995
vt 0.587254 0.562309
vt 0.587441 0.560253
vt 0.549682 0.548804
vt 0.550643 0.544784
vt 0.554148 0.536097
vt 0.557181 0.532006
vt 0.564398 0.527095
vt 0.568304 0.526463
vt 0.575965 0.528966
vt 0.579426 0.532006
vt 0.582460 0.536097
vt 0.583088 0.537355
vt 0.584949 0.541398
vt 0.585964 0.544784
vt 0.586799 0.547961
vt 0.586925 0.548804
vt 0.587538 0.555289
vt 0.587569 0.556899
vt 0.587539 0.558510
vt 0.587254 0.562309
vt 0.586925 0.564995
vt 0.586799 0.565838
vt 0.585964 0.569015
vt 0.583088 0.576444
vt 0.575965 0.584832
vt 0.572209 0.586704
vt 0.564398 0.586704
vt 0.553519 0.576444
vt 0.551658 0.572401
vt 0.550643 0.569015
vt 0.549808 0.565838
vt 0.549682 0.564995
vt 0.549167 0.560253
vt 0.549069 0.558510
s 1
usemtl Material.003
f 16/13/7 15/14/8 24/15/9 25/16/10
f 17/17/11 16/13/7 25/16/10 26/18/12
f 19/19/13 163/20/14 327/21/15 328/22/16
f 166/23/17 17/17/11 26/18/12 27/24/18
f 13/25/19 163/20/14 19/19/13 20/26/20
f 18/27/21 166/23/17 27/24/18 28/28/22
f 164/29/23 13/25/19 20/26/20 21/30/24
f 167/31/25 18/27/21 28/28/22 29/32/26
f 14/33/27 164/29/23 21/30/24 22/34/28
f 168/35/29 167/31/25 29/32/26 30/36/30
f 165/37/31 14/33/27 22/34/28 23/38/32
f 169/39/33 168/35/29 30/36/30 31/40/34
f 15/14/8 165/37/31 23/38/32 24/15/9
f 169/39/33 31/40/34 330/41/35 329/42/36
f 31/40/34 30/36/30 43/43/37 44/44/38
f 24/15/9 23/38/32 36/45/39 37/46/40
f 31/40/34 44/44/38 331/47/41 330/48/35
f 25/16/10 24/15/9 37/46/40 38/49/42
f 26/18/12 25/16/10 38/49/42 39/50/43
f 32/51/44 19/19/13 328/52/16 332/53/45
f 27/24/18 26/18/12 39/50/43 40/54/46
f 20/26/20 19/19/13 32/51/44 33/55/47
f 28/28/22 27/24/18 40/54/46 41/56/48
f 21/30/24 20/26/20 33/55/47 34/57/49
f 29/32/26 28/28/22 41/56/48 42/58/50
f 22/34/28 21/30/24 34/57/49 35/59/51
f 30/36/30 29/32/26 42/58/50 43/43/37
f 23/38/32 22/34/28 35/59/51 36/45/39
f 41/56/48 40/54/46 53/60/52 54/61/53
f 34/57/49 33/55/47 46/62/54 47/63/55
f 42/58/50 41/56/48 54/61/53 55/64/56
f 35/59/51 34/57/49 47/63/55 48/65/57
f 43/43/37 42/58/50 55/64/56 56/66/58
f 36/45/39 35/59/51 48/65/57 49/67/59
f 44/44/38 43/43/37 56/66/58 57/68/60
f 37/46/40 36/45/39 49/67/59 50/69/61
f 44/44/38 57/68/60 333/70/62 331/47/41
f 38/49/42 37/46/40 50/69/61 51/71/63
f 39/50/43 38/49/42 51/71/63 52/72/64
f 45/73/65 32/51/44 332/53/45 334/74/66
f 40/54/46 39/50/43 52/72/64 53/60/52
f 33/55/47 32/51/44 45/73/65 46/62/54
f 57/68/60 70/75/67 335/76/68 333/77/62
f 51/71/63 50/69/61 63/78/69 64/79/70
f 52/72/64 51/71/63 64/79/70 65/80/71
f 58/81/72 45/73/65 334/82/66 336/83/73
f 53/60/52 52/72/64 65/80/71 66/84/74
f 46/62/54 45/73/65 58/81/72 59/85/75
f 54/61/53 53/60/52 66/84/74 67/86/76
f 47/63/55 46/62/54 59/85/75 60/87/77
f 55/64/56 54/61/53 67/86/76 68/88/78
f 48/65/57 47/63/55 60/87/77 61/89/79
f 56/66/58 55/64/56 68/88/78 69/90/80
f 49/67/59 48/65/57 61/89/79 62/91/81
f 57/68/60 56/66/58 69/90/80 70/75/67
f 50/69/61 49/67/59 62/91/81 63/78/69
f 60/87/77 59/85/75 71/92/82 72/93/83
f 68/88/78 67/86/76 79/94/84 80/95/85
f 61/89/79 60/87/77 72/93/83 73/96/86
f 69/90/80 68/88/78 80/95/85 81/97/87
f 62/91/81 61/89/79 73/96/86 74/98/88
f 70/75/67 69/90/80 81/97/87 337/99/89 338/100/90
f 63/78/69 62/91/81 74/98/88 75/101/91
f 335/102/68 70/75/67 338/100/90
f 64/79/70 63/78/69 75/101/91 76/103/92
f 65/80/71 64/79/70 76/103/92 77/104/93
f 339/105/94 58/81/72 336/106/73
f 66/84/74 65/80/71 77/104/93 78/107/95
f 71/92/82 59/85/75 58/81/72 339/105/94 340/108/96
f 67/86/76 66/84/74 78/107/95 79/94/84
f 76/103/92 75/101/91 85/109/97 86/110/98
f 77/104/93 76/103/92 86/110/98 87/111/99
f 78/107/95 77/104/93 87/111/99 88/112/100
f 341/113/101 71/92/82 340/108/96
f 79/94/84 78/107/95 88/112/100 89/114/102
f 82/115/103 72/93/83 71/92/82 341/113/101 342/116/104
f 80/95/85 79/94/84 89/114/102 90/117/105
f 73/96/86 72/93/83 82/115/103 83/118/106
f 81/97/87 80/95/85 90/117/105 343/119/107 344/120/108
f 74/98/88 73/96/86 83/118/106 84/121/109
f 337/99/89 81/97/87 344/120/108
f 75/101/91 74/98/88 84/121/109 85/109/97
f 346/122/110 90/117/105 89/114/102 345/123/111
f 348/124/112 83/118/106 82/115/103 347/125/113
f 343/126/107 90/117/105 346/127/110
f 349/128/114 84/121/109 83/118/106 348/124/112
f 350/129/115 85/109/97 84/121/109 349/130/114
f 351/131/116 86/110/98 85/109/97 350/129/115
f 352/132/117 87/111/99 86/110/98 351/133/116
f 353/134/118 88/112/100 87/111/99 352/132/117
f 345/123/111 89/114/102 88/112/100 353/135/118
f 347/136/113 82/115/103 342/137/104
f 354/138/119 93/139/120 94/140/121 355/141/122
f 355/142/122 94/140/121 95/143/123 356/144/124
f 356/144/124 95/143/123 96/145/125 357/146/126
f 357/146/126 96/145/125 97/147/127 358/148/128
f 358/148/128 97/147/127 98/149/129 359/150/130
f 360/151/131 361/152/132 91/153/133
f 359/154/130 98/149/129 99/155/134 362/156/135
f 360/151/131 91/153/133 92/157/136 363/158/137
f 362/156/135 99/155/134 364/159/138
f 363/160/137 92/157/136 93/139/120 354/138/119
f 365/161/139 366/162/140 100/163/141
f 98/149/129 97/147/127 107/164/142 108/165/143
f 100/163/141 101/166/144 91/153/133 361/167/132 365/168/139
f 99/155/134 98/149/129 108/165/143 109/169/145
f 92/157/136 91/153/133 101/166/144 102/170/146
f 99/155/134 109/169/145 110/171/147 367/172/148 364/173/138
f 93/139/120 92/157/136 102/170/146 103/174/149
f 367/175/148 110/171/147 368/176/150
f 94/140/121 93/139/120 103/174/149 104/177/151
f 95/143/123 94/140/121 104/177/151 105/178/152
f 96/145/125 95/143/123 105/178/152 106/179/153
f 97/147/127 96/145/125 106/179/153 107/164/142
f 104/177/151 103/174/149 115/180/154 116/181/155
f 369/182/156 123/183/157 370/184/158
f 105/178/152 104/177/151 116/181/155 117/185/159
f 106/179/153 105/178/152 117/185/159 118/186/160
f 371/187/161 372/188/162 111/189/163
f 107/164/142 106/179/153 118/186/160 119/190/164
f 111/189/163 112/191/165 100/163/141 366/162/140 371/192/161
f 108/165/143 107/164/142 119/190/164 120/193/166
f 101/166/144 100/163/141 112/191/165 113/194/167
f 109/169/145 108/165/143 120/193/166 121/195/168
f 102/170/146 101/166/144 113/194/167 114/196/169
f 110/171/147 109/169/145 121/195/168 122/197/170
f 103/174/149 102/170/146 114/196/169 115/180/154
f 110/171/147 122/197/170 123/183/157 369/198/156 368/176/150
f 120/193/166 119/190/164 132/199/171 133/200/172
f 113/194/167 112/191/165 125/201/173 126/202/174
f 121/195/168 120/193/166 133/200/172 134/203/175
f 114/196/169 113/194/167 126/202/174 127/204/176
f 122/197/170 121/195/168 134/203/175 135/205/177
f 115/180/154 114/196/169 127/204/176 128/206/178
f 123/183/157 122/197/170 135/205/177 136/207/179
f 116/181/155 115/180/154 128/206/178 129/208/180
f 123/183/157 136/207/179 373/209/181 370/210/158
f 117/185/159 116/181/155 129/208/180 130/211/182
f 118/186/160 117/185/159 130/211/182 131/212/183
f 124/213/184 111/189/163 372/214/162 374/215/185
f 119/190/164 118/186/160 131/212/183 132/199/171
f 112/191/165 111/189/163 124/213/184 125/201/173
f 136/207/179 149/216/186 375/217/187 373/218/181
f 130/211/182 129/208/180 142/219/188 143/220/189
f 131/212/183 130/211/182 143/220/189 144/221/190
f 137/222/191 124/213/184 374/223/185 376/224/192
f 132/199/171 131/212/183 144/221/190 145/225/193
f 125/201/173 124/213/184 137/222/191 138/226/194
f 133/200/172 132/199/171 145/225/193 146/227/195
f 126/202/174 125/201/173 138/226/194 139/228/196
f 134/203/175 133/200/172 146/227/195 147/229/197
f 127/204/176 126/202/174 139/228/196 140/230/198
f 135/205/177 134/203/175 147/229/197 148/231/199
f 128/206/178 127/204/176 140/230/198 141/232/200
f 136/207/179 135/205/177 148/231/199 149/216/186
f 129/208/180 128/206/178 141/232/200 142/219/188
f 147/229/197 146/227/195 159/233/201 160/234/202
f 140/230/198 139/228/196 152/235/203 153/236/204
f 148/231/199 147/229/197 160/234/202 161/237/205
f 141/232/200 140/230/198 153/236/204 154/238/206
f 149/216/186 148/231/199 161/237/205 162/239/207
f 142/219/188 141/232/200 154/238/206 155/240/208
f 149/216/186 162/239/207 377/241/209 375/242/187
f 143/220/189 142/219/188 155/240/208 156/243/210
f 144/221/190 143/220/189 156/243/210 157/244/211
f 150/245/212 137/222/191 376/246/192 378/247/213
f 145/225/193 144/221/190 157/244/211 158/248/214
f 138/226/194 137/222/191 150/245/212 151/249/215
f 146/227/195 145/225/193 158/248/214 159/233/201
f 139/228/196 138/226/194 151/249/215 152/235/203
f 157/244/211 156/243/210 16/13/7 17/17/11
f 163/20/14 150/245/212 378/247/213 327/250/15
f 158/248/214 157/244/211 17/17/11 166/23/17
f 151/249/215 150/245/212 163/20/14 13/25/19
f 159/233/201 158/248/214 166/23/17 18/27/21
f 152/235/203 151/249/215 13/25/19 164/29/23
f 160/234/202 159/233/201 18/27/21 167/31/25
f 153/236/204 152/235/203 164/29/23 14/33/27
f 161/237/205 160/234/202 167/31/25 168/35/29
f 154/238/206 153/236/204 14/33/27 165/37/31
f 162/239/207 161/237/205 168/35/29 169/39/33
f 155/240/208 154/238/206 165/37/31 15/14/8
f 162/239/207 169/39/33 329/251/36 377/252/209
f 156/243/210 155/240/208 15/14/8 16/13/7
f 173/13/7 182/16/210 181/15/208 172/14/8
f 174/17/11 183/18/211 182/16/210 173/13/7
f 380/253/15 320/20/14 176/19/212 379/22/213
f 323/23/17 184/24/214 183/18/211 174/17/11
f 170/25/19 177/26/215 176/19/212 320/20/14
f 175/27/21 185/28/201 184/24/214 323/23/17
f 321/29/23 178/30/203 177/26/215 170/25/19
f 324/31/25 186/32/202 185/28/201 175/27/21
f 171/33/27 179/34/204 178/30/203 321/29/23
f 325/35/29 187/36/205 186/32/202 324/31/25
f 322/37/31 180/38/206 179/34/204 171/33/27
f 326/39/33 188/40/207 187/36/205 325/35/29
f 172/14/8 181/15/208 180/38/206 322/37/31
f 381/41/209 188/40/207 326/39/33 382/42/36
f 188/40/207 201/44/186 200/43/199 187/36/205
f 181/15/208 194/46/188 193/45/200 180/38/206
f 383/47/187 201/44/186 188/40/207 381/254/209
f 182/16/210 195/49/189 194/46/188 181/15/208
f 183/18/211 196/50/190 195/49/189 182/16/210
f 379/52/213 176/19/212 189/51/191 384/53/192
f 184/24/214 197/54/193 196/50/190 183/18/211
f 177/26/215 190/55/194 189/51/191 176/19/212
f 185/28/201 198/56/195 197/54/193 184/24/214
f 178/30/203 191/57/196 190/55/194 177/26/215
f 186/32/202 199/58/197 198/56/195 185/28/201
f 179/34/204 192/59/198 191/57/196 178/30/203
f 187/36/205 200/43/199 199/58/197 186/32/202
f 180/38/206 193/45/200 192/59/198 179/34/204
f 198/56/195 211/61/172 210/60/171 197/54/193
f 191/57/196 204/63/174 203/62/173 190/55/194
f 199/58/197 212/64/175 211/61/172 198/56/195
f 192/59/198 205/65/176 204/63/174 191/57/196
f 200/43/199 213/66/177 212/64/175 199/58/197
f 193/45/200 206/67/178 205/65/176 192/59/198
f 201/44/186 214/68/179 213/66/177 200/43/199
f 194/46/188 207/69/180 206/67/178 193/45/200
f 385/70/181 214/68/179 201/44/186 383/47/187
f 195/49/189 208/71/182 207/69/180 194/46/188
f 196/50/190 209/72/183 208/71/182 195/49/189
f 384/53/192 189/51/191 202/73/184 386/74/185
f 197/54/193 210/60/171 209/72/183 196/50/190
f 190/55/194 203/62/173 202/73/184 189/51/191
f 387/255/158 227/75/157 214/68/179 385/77/181
f 208/71/182 221/79/159 220/78/155 207/69/180
f 209/72/183 222/80/160 221/79/159 208/71/182
f 386/82/185 202/73/184 215/81/163 388/256/162
f 210/60/171 223/84/164 222/80/160 209/72/183
f 203/62/173 216/85/165 215/81/163 202/73/184
f 211/61/172 224/86/166 223/84/164 210/60/171
f 204/63/174 217/87/167 216/85/165 203/62/173
f 212/64/175 225/88/168 224/86/166 211/61/172
f 205/65/176 218/89/169 217/87/167 204/63/174
f 213/66/177 226/90/170 225/88/168 212/64/175
f 206/67/178 219/91/154 218/89/169 205/65/176
f 214/68/179 227/75/157 226/90/170 213/66/177
f 207/69/180 220/78/155 219/91/154 206/67/178
f 217/87/167 229/93/144 228/92/141 216/85/165
f 225/88/168 237/95/145 236/94/143 224/86/166
f 218/89/169 230/96/146 229/93/144 217/87/167
f 226/90/170 238/97/147 237/95/145 225/88/168
f 219/91/154 231/98/149 230/96/146 218/89/169
f 227/75/157 390/100/156 389/99/150 238/97/147 226/90/170
f 220/78/155 232/101/151 231/98/149 219/91/154
f 390/100/156 227/75/157 387/102/158
f 221/79/159 233/103/152 232/101/151 220/78/155
f 222/80/160 234/104/153 233/103/152 221/79/159
f 388/106/162 215/81/163 391/105/161
f 223/84/164 235/107/142 234/104/153 222/80/160
f 215/81/163 216/85/165 228/92/141 392/108/140 391/105/161
f 224/86/166 236/94/143 235/107/142 223/84/164
f 233/103/152 243/110/123 242/109/121 232/101/151
f 234/104/153 244/111/125 243/110/123 233/103/152
f 235/107/142 245/112/127 244/111/125 234/104/153
f 392/108/140 228/92/141 393/113/139
f 236/94/143 246/114/129 245/112/127 235/107/142
f 228/92/141 229/93/144 239/115/133 394/116/132 393/113/139
f 237/95/145 247/117/134 246/114/129 236/94/143
f 230/96/146 240/118/136 239/115/133 229/93/144
f 238/97/147 396/120/148 395/257/138 247/117/134 237/95/145
f 231/98/149 241/121/120 240/118/136 230/96/146
f 396/120/148 238/97/147 389/99/150
f 232/101/151 242/109/121 241/121/120 231/98/149
f 246/114/129 247/117/134 397/122/135 398/123/130
f 239/115/133 240/118/136 399/258/137 400/259/131
f 397/127/135 247/117/134 395/260/138
f 240/118/136 241/121/120 401/261/119 399/124/137
f 241/121/120 242/109/121 402/129/122 401/130/119
f 242/109/121 243/110/123 403/131/124 402/129/122
f 243/110/123 244/111/125 404/132/126 403/131/124
f 244/111/125 245/112/127 405/134/128 404/132/126
f 245/112/127 246/114/129 398/262/130 405/135/128
f 394/116/132 239/115/133 400/136/131
f 251/140/97 250/139/109 407/138/114 406/141/115
f 252/143/98 251/140/97 406/141/115 408/263/116
f 253/145/99 252/143/98 408/144/116 409/146/117
f 254/147/100 253/145/99 409/146/117 410/148/118
f 255/149/102 254/147/100 410/148/118 411/154/111
f 412/152/104 413/151/113 248/153/103
f 256/155/105 255/149/102 411/150/111 414/156/110
f 249/157/106 248/153/103 413/151/113 415/160/112
f 416/159/107 256/155/105 414/264/110
f 250/139/109 249/157/106 415/158/112 407/138/114
f 417/162/96 418/161/101 257/163/82
f 255/149/102 265/165/84 264/164/95 254/147/100
f 248/153/103 258/166/83 257/163/82 418/168/101 412/167/104
f 256/155/105 266/169/85 265/165/84 255/149/102
f 249/157/106 259/170/86 258/166/83 248/153/103
f 267/171/87 266/169/85 256/155/105 416/173/107 419/172/108
f 250/139/109 260/174/88 259/170/86 249/157/106
f 420/176/89 267/171/87 419/265/108
f 251/140/97 261/177/91 260/174/88 250/139/109
f 252/143/98 262/178/92 261/177/91 251/140/97
f 253/145/99 263/179/93 262/178/92 252/143/98
f 254/147/100 264/164/95 263/179/93 253/145/99
f 261/177/91 273/181/69 272/180/81 260/174/88
f 421/184/68 280/183/67 422/182/90
f 262/178/92 274/185/70 273/181/69 261/177/91
f 263/179/93 275/186/71 274/185/70 262/178/92
f 423/188/73 424/266/94 268/189/72
f 264/164/95 276/190/74 275/186/71 263/179/93
f 257/163/82 269/191/75 268/189/72 424/192/94 417/162/96
f 265/165/84 277/193/76 276/190/74 264/164/95
f 258/166/83 270/194/77 269/191/75 257/163/82
f 266/169/85 278/195/78 277/193/76 265/165/84
f 259/170/86 271/196/79 270/194/77 258/166/83
f 267/171/87 279/197/80 278/195/78 266/169/85
f 260/174/88 272/180/81 271/196/79 259/170/86
f 280/183/67 279/197/80 267/171/87 420/176/89 422/198/90
f 277/193/76 290/200/53 289/199/52 276/190/74
f 270/194/77 283/202/55 282/201/54 269/191/75
f 278/195/78 291/203/56 290/200/53 277/193/76
f 271/196/79 284/204/57 283/202/55 270/194/77
f 279/197/80 292/205/58 291/203/56 278/195/78
f 272/180/81 285/206/59 284/204/57 271/196/79
f 280/183/67 293/207/60 292/205/58 279/197/80
f 273/181/69 286/208/61 285/206/59 272/180/81
f 425/267/62 293/207/60 280/183/67 421/268/68
f 274/185/70 287/211/63 286/208/61 273/181/69
f 275/186/71 288/212/64 287/211/63 274/185/70
f 423/269/73 268/189/72 281/213/65 426/215/66
f 276/190/74 289/199/52 288/212/64 275/186/71
f 269/191/75 282/201/54 281/213/65 268/189/72
f 427/270/41 306/216/38 293/207/60 425/271/62
f 287/211/63 300/220/42 299/219/40 286/208/61
f 288/212/64 301/221/43 300/220/42 287/211/63
f 426/223/66 281/213/65 294/222/44 428/224/45
f 289/199/52 302/225/46 301/221/43 288/212/64
f 282/201/54 295/226/47 294/222/44 281/213/65
f 290/200/53 303/227/48 302/225/46 289/199/52
f 283/202/55 296/228/49 295/226/47 282/201/54
f 291/203/56 304/229/50 303/227/48 290/200/53
f 284/204/57 297/230/51 296/228/49 283/202/55
f 292/205/58 305/231/37 304/229/50 291/203/56
f 285/206/59 298/232/39 297/230/51 284/204/57
f 293/207/60 306/216/38 305/231/37 292/205/58
f 286/208/61 299/219/40 298/232/39 285/206/59
f 304/229/50 317/234/26 316/233/22 303/227/48
f 297/230/51 310/236/28 309/235/24 296/228/49
f 305/231/37 318/237/30 317/234/26 304/229/50
f 298/232/39 311/238/32 310/236/28 297/230/51
f 306/216/38 319/239/34 318/237/30 305/231/37
f 299/219/40 312/240/9 311/238/32 298/232/39
f 429/272/35 319/239/34 306/216/38 427/270/41
f 300/220/42 313/243/10 312/240/9 299/219/40
f 301/221/43 314/244/12 313/243/10 300/220/42
f 428/246/45 294/222/44 307/245/13 430/247/16
f 302/225/46 315/248/18 314/244/12 301/221/43
f 295/226/47 308/249/20 307/245/13 294/222/44
f 303/227/48 316/233/22 315/248/18 302/225/46
f 296/228/49 309/235/24 308/249/20 295/226/47
f 314/244/12 174/17/11 173/13/7 313/243/10
f 430/247/16 307/245/13 320/20/14 380/253/15
f 315/248/18 323/23/17 174/17/11 314/244/12
f 308/249/20 170/25/19 320/20/14 307/245/13
f 316/233/22 175/27/21 323/23/17 315/248/18
f 309/235/24 321/29/23 170/25/19 308/249/20
f 317/234/26 324/31/25 175/27/21 316/233/22
f 310/236/28 171/33/27 321/29/23 309/235/24
f 318/237/30 325/35/29 324/31/25 317/234/26
f 311/238/32 322/37/31 171/33/27 310/236/28
f 319/239/34 326/39/33 325/35/29 318/237/30
f 312/240/9 172/14/8 322/37/31 311/238/32
f 382/273/36 326/39/33 319/239/34 429/252/35
f 313/243/10 173/13/7 172/14/8 312/240/9
s 0
f 328/274/216 327/275/216 378/276/216 376/277/216 374/278/216 372/279/216 371/280/216 366/281/216 365/282/216 361/283/216 360/284/216 363/285/216 354/286/216 355/287/216 356/288/216 357/289/216 358/290/216 359/291/216 362/292/216 364/293/216 367/294/216 368/295/216 369/296/216 370/297/216 373/298/216 375/299/216 377/300/216 329/301/216 330/302/216 331/303/216 333/304/216 335/305/216 338/306/216 337/307/216 344/308/216 343/309/216 346/310/216 345/311/216 353/312/216 352/313/216 351/314/216 350/315/216 349/316/216 348/317/216 347/318/216 342/319/216 341/320/216 340/321/216 339/322/216 336/323/216 334/324/216 332/325/216
f 427/299/216 425/298/216 421/326/216 422/296/216 420/327/216 419/294/216 416/293/216 414/328/216 411/329/216 410/290/216 409/330/216 408/331/216 406/287/216 407/332/216 415/333/216 413/334/216 412/335/216 418/336/216 417/337/216 424/338/216 423/339/216 426/278/216 428/277/216 430/340/216 380/341/216 379/342/216 384/325/216 386/343/216 388/344/216 391/345/216 392/346/216 393/320/216 394/347/216 400/318/216 399/317/216 401/348/216 402/349/216 403/314/216 404/350/216 405/312/216 398/311/216 397/310/216 395/351/216 396/352/216 389/353/216 390/354/216 387/355/216 385/304/216 383/356/216 381/357/216 382/301/216 429/300/216
o Cylinder.001
v 0.115175 -3.584365 -0.805728
v 0.146590 -3.584365 -0.779947
v 0.172372 -3.584365 -0.748532
v 0.191530 -3.584365 -0.712690
v 0.203327 -3.584365 -0.673800
v 0.207310 -3.584365 -0.633356
v 0.203327 -3.584365 -0.592912
v 0.191530 -3.584365 -0.554022
v 0.172372 -3.584365 -0.518181
v 0.146590 -3.584365 -0.486766
v 0.115175 -3.584365 0.805728
v 0.146590 -3.584365 0.779947
v 0.172372 -3.584365 0.748532
v 0.191530 -3.584365 0.712690
v 0.203327 -3.584365 0.673800
v 0.207310 -3.584365 0.633356
v 0.203327 -3.584365 0.592912
v 0.191530 -3.584365 0.554022
v 0.172372 -3.584365 0.518181
v 0.146590 -3.584365 0.486766
v -0.000000 -1.866960 -0.889425
v 0.049957 -1.866960 -0.884505
v 0.097993 -1.866960 -0.869933
v 0.142264 -1.866960 -0.846270
v 0.181068 -1.866960 -0.814424
v 0.212914 -1.866960 -0.775621
v 0.236577 -1.866960 -0.731350
v 0.251149 -1.866960 -0.683313
v 0.256069 -1.866960 -0.633356
v 0.251149 -1.866960 -0.583400
v 0.236577 -1.866960 -0.535363
v 0.212914 -1.866960 -0.491092
v 0.181068 -1.866960 -0.452288
v 0.142264 -1.866960 -0.420443
v 0.097993 -1.866960 -0.396780
v 0.049957 -1.866960 -0.382208
v -0.000000 -1.866960 -0.377287
v -0.049957 -1.866960 -0.382208
v -0.097993 -1.866960 -0.396780
v -0.142264 -1.866960 -0.420443
v -0.181068 -1.866960 -0.452288
v -0.212914 -1.866960 -0.491092
v -0.236577 -1.866960 -0.535363
v -0.251149 -1.866960 -0.583400
v -0.256069 -1.866960 -0.633356
v -0.251149 -1.866960 -0.683313
v -0.236577 -1.866960 -0.731350
v -0.212914 -1.866960 -0.775621
v -0.181068 -1.866960 -0.814424
v -0.142264 -1.866960 -0.846270
v -0.097993 -1.866960 -0.869933
v -0.049957 -1.866960 -0.884505
v 0.049957 -1.866960 0.884505
v -0.000000 -1.866960 0.889425
v 0.097993 -1.866960 0.869933
v 0.142264 -1.866960 0.846270
v 0.181068 -1.866960 0.814424
v 0.212914 -1.866960 0.775621
v 0.236577 -1.866960 0.731350
v 0.251149 -1.866960 0.683313
v 0.256069 -1.866960 0.633356
v 0.251149 -1.866960 0.583400
v 0.236577 -1.866960 0.535363
v 0.212914 -1.866960 0.491092
v 0.181068 -1.866960 0.452288
v 0.142264 -1.866960 0.420443
v 0.097993 -1.866960 0.396780
v 0.049957 -1.866960 0.382208
v -0.000000 -1.866960 0.377287
v -0.049957 -1.866960 0.382208
v -0.097993 -1.866960 0.396780
v -0.142264 -1.866960 0.420443
v -0.181068 -1.866960 0.452288
v -0.212914 -1.866960 0.491092
v -0.236577 -1.866960 0.535363
v -0.251149 -1.866960 0.583400
v -0.256069 -1.866960 0.633356
v -0.251149 -1.866960 0.683313
v -0.236577 -1.866960 0.731350
v -0.212914 -1.866960 0.775621
v -0.181068 -1.866960 0.814424
v -0.142264 -1.866960 0.846270
v -0.097993 -1.866960 0.869933
v -0.049957 -1.866960 0.884505
v 0.040524 -3.569919 -0.837085
v -0.000000 -3.561353 -0.841320
v 0.079402 -3.578103 -0.825050
v 0.109293 -3.584365 -0.808873
v 0.116353 -3.584365 -0.461951
v 0.115179 -3.584112 -0.460978
v 0.079420 -3.576453 -0.441619
v 0.040534 -3.568164 -0.429579
v -0.000000 -3.559560 -0.425342
v -0.040629 -3.550969 -0.429100
v -0.079787 -3.542725 -0.440735
v -0.115952 -3.535146 -0.459822
v -0.147711 -3.528530 -0.485645
v -0.173817 -3.523136 -0.517215
v -0.193239 -3.519177 -0.553314
v -0.205208 -3.516811 -0.592538
v -0.209247 -3.516131 -0.633356
v -0.205198 -3.517165 -0.674173
v -0.193221 -3.519871 -0.713391
v -0.173794 -3.524142 -0.749481
v -0.147686 -3.529809 -0.781042
v -0.115928 -3.536647 -0.806855
v -0.079768 -3.544389 -0.825934
v -0.040619 -3.552732 -0.837564
v -0.000000 -3.561353 0.841320
v 0.040524 -3.569919 0.837085
v 0.079402 -3.578103 0.825050
v 0.109293 -3.584365 0.808873
v 0.116353 -3.584365 0.461951
v 0.115179 -3.584112 0.460978
v 0.079420 -3.576453 0.441619
v 0.040534 -3.568164 0.429579
v -0.000000 -3.559560 0.425342
v -0.040629 -3.550969 0.429100
v -0.079787 -3.542725 0.440735
v -0.115952 -3.535146 0.459822
v -0.147711 -3.528530 0.485645
v -0.173817 -3.523136 0.517215
v -0.193239 -3.519177 0.553314
v -0.205208 -3.516811 0.592538
v -0.209247 -3.516131 0.633356
v -0.205198 -3.517165 0.674173
v -0.193221 -3.519871 0.713391
v -0.173794 -3.524142 0.749481
v -0.147686 -3.529809 0.781042
v -0.115928 -3.536647 0.806855
v -0.079768 -3.544389 0.825934
v -0.040619 -3.552732 0.837564
vn 0.0980 -0.0282 -0.9948
vn 0.2902 -0.0282 -0.9566
vn 0.4712 -0.0282 -0.8816
vn 0.6341 -0.0282 -0.7727
vn 0.7727 -0.0282 -0.6341
vn 0.8816 -0.0282 -0.4712
vn 0.9566 -0.0282 -0.2902
vn 0.9948 -0.0282 -0.0980
vn 0.9948 -0.0282 0.0980
vn 0.9566 -0.0282 0.2902
vn 0.8816 -0.0282 0.4712
vn 0.7727 -0.0282 0.6341
vn 0.6341 -0.0282 0.7727
vn 0.4712 -0.0282 0.8816
vn 0.2902 -0.0282 0.9566
vn 0.0980 -0.0282 0.9948
vn -0.0980 -0.0282 0.9948
vn -0.2902 -0.0282 0.9566
vn -0.4712 -0.0282 0.8816
vn -0.6341 -0.0282 0.7727
vn -0.7727 -0.0282 0.6341
vn -0.8816 -0.0282 0.4712
vn -0.9566 -0.0282 0.2902
vn -0.9948 -0.0282 0.0980
vn -0.9948 -0.0282 -0.0980
vn -0.9566 -0.0282 -0.2902
vn -0.8816 -0.0282 -0.4712
vn -0.7727 -0.0282 -0.6341
vn -0.6341 -0.0282 -0.7727
vn -0.4712 -0.0282 -0.8816
vn -0.2902 -0.0282 -0.9566
vn -0.0980 -0.0282 -0.9948
vn -0.0000 -1.0000 -0.0000
vn -0.0000 1.0000 -0.0000
vn -0.2072 -0.9783 0.0042
vn -0.2072 -0.9783 -0.0042
vt 1.000000 0.506468
vt 1.000000 0.982743
vt 0.968750 0.982743
vt 0.968750 0.504061
vt 0.968750 0.982743
vt 0.937500 0.982743
vt 0.937500 0.501760
vt 0.937500 0.501760
vt 0.937500 0.982743
vt 0.906250 0.982743
vt 0.906250 0.500000
vt 0.911379 0.500000
vt 0.875000 0.982743
vt 0.875000 0.500000
vt 0.906250 0.982743
vt 0.843750 0.982743
vt 0.843750 0.500000
vt 0.875000 0.982743
vt 0.812500 0.982743
vt 0.812500 0.500000
vt 0.843750 0.982743
vt 0.781250 0.982743
vt 0.781250 0.500000
vt 0.812500 0.982743
vt 0.750000 0.982743
vt 0.750000 0.500000
vt 0.781250 0.982743
vt 0.718750 0.500000
vt 0.750000 0.982743
vt 0.718750 0.982743
vt 0.687500 0.500000
vt 0.718750 0.982743
vt 0.687500 0.982743
vt 0.656250 0.500000
vt 0.687500 0.982743
vt 0.656250 0.982743
vt 0.625000 0.500000
vt 0.656250 0.982743
vt 0.625000 0.982743
vt 0.593750 0.982743
vt 0.593750 0.500071
vt 0.594922 0.500000
vt 0.625000 0.982743
vt 0.562500 0.982743
vt 0.562500 0.502224
vt 0.562500 0.502224
vt 0.562500 0.982743
vt 0.531250 0.982743
vt 0.531250 0.504554
vt 0.531250 0.982743
vt 0.500000 0.982743
vt 0.500000 0.506972
vt 0.500000 0.982743
vt 0.468750 0.982743
vt 0.468750 0.509387
vt 0.468750 0.509387
vt 0.468750 0.982743
vt 0.437500 0.982743
vt 0.437500 0.511705
vt 0.437500 0.982743
vt 0.406250 0.982743
vt 0.406250 0.513835
vt 0.406250 0.513835
vt 0.406250 0.982743
vt 0.375000 0.982743
vt 0.375000 0.515694
vt 0.343750 0.982743
vt 0.343750 0.517211
vt 0.375000 0.515694
vt 0.343750 0.982743
vt 0.312500 0.982743
vt 0.312500 0.518323
vt 0.343750 0.517211
vt 0.312500 0.982743
vt 0.281250 0.982743
vt 0.281250 0.518988
vt 0.312500 0.518323
vt 0.281250 0.982743
vt 0.250000 0.982743
vt 0.250000 0.519180
vt 0.281250 0.518989
vt 0.250000 0.519180
vt 0.250000 0.982743
vt 0.218750 0.982743
vt 0.218750 0.518889
vt 0.218750 0.982743
vt 0.187500 0.982743
vt 0.187500 0.518128
vt 0.187500 0.518128
vt 0.187500 0.982743
vt 0.156250 0.982743
vt 0.156250 0.516928
vt 0.156250 0.982743
vt 0.125000 0.982743
vt 0.125000 0.515335
vt 0.125000 0.982743
vt 0.093750 0.982743
vt 0.093750 0.513413
vt 0.093750 0.982743
vt 0.062500 0.982743
vt 0.062500 0.511237
vt 0.093750 0.513413
vt 0.062500 0.982743
vt 0.031250 0.982743
vt 0.031250 0.508892
vt 0.031250 0.982743
vt 0.000000 0.982743
vt 0.000000 0.506468
vt 0.876527 0.453193
vt 0.883337 0.449553
vt 0.919706 0.419706
vt 0.949553 0.383337
vt 0.971731 0.341844
vt 0.985388 0.296822
vt 0.990000 0.250000
vt 0.985388 0.203178
vt 0.971731 0.158156
vt 0.949553 0.116663
vt 0.919706 0.080294
vt 0.884700 0.051566
vt 0.968750 0.982743
vt 1.000000 0.982743
vt 0.937500 0.982743
vt 0.875000 0.982743
vt 0.781250 0.982743
vt 0.750000 0.982743
vt 0.750000 0.982743
vt 0.718750 0.982743
vt 0.687500 0.982743
vt 0.625000 0.982743
vt 0.593750 0.982743
vt 0.593750 0.982743
vt 0.437500 0.511705
vt 0.406250 0.982743
vt 0.375000 0.982743
vt 0.375000 0.982743
vt 0.375000 0.515694
vt 0.312500 0.982743
vt 0.281250 0.518988
vt 0.281250 0.982743
vt 0.312500 0.518323
vt 0.250000 0.982743
vt 0.218750 0.982743
vt 0.218750 0.518889
vt 0.187500 0.518128
vt 0.125000 0.515335
vt 0.125000 0.515335
vt 0.062500 0.511237
vt 0.062500 0.982743
vt 0.031250 0.982743
vt 0.062500 0.511237
vt 0.000000 0.982743
vt 0.884700 0.051566
vt 0.272985 0.583029
vt 0.283369 0.580526
vt 0.292470 0.577157
vt 0.299940 0.573053
vt 0.305490 0.568370
vt 0.308908 0.563289
vt 0.310062 0.558004
vt 0.308908 0.552720
vt 0.305490 0.547639
vt 0.299940 0.542956
vt 0.292470 0.538851
vt 0.283369 0.535483
vt 0.272985 0.532979
vt 0.261717 0.531438
vt 0.250000 0.530918
vt 0.238283 0.531438
vt 0.227015 0.532979
vt 0.216632 0.535483
vt 0.207530 0.538851
vt 0.200060 0.542956
vt 0.194510 0.547639
vt 0.191092 0.552720
vt 0.189938 0.558004
vt 0.191092 0.563289
vt 0.194510 0.568370
vt 0.200060 0.573053
vt 0.207530 0.577157
vt 0.216631 0.580526
vt 0.227015 0.583029
vt 0.238283 0.584571
vt 0.250000 0.585091
vt 0.261717 0.584571
vt 0.238283 0.531438
vt 0.272985 0.532979
vt 0.299940 0.542956
vt 0.305490 0.547639
vt 0.308908 0.552720
vt 0.308908 0.563289
vt 0.299940 0.573053
vt 0.292470 0.577157
vt 0.283369 0.580526
vt 0.261717 0.584570
vt 0.250000 0.585091
vt 0.227015 0.583029
vt 0.216631 0.580526
vt 0.200060 0.573053
vt 0.194510 0.568370
vt 0.191092 0.563289
vt 0.189938 0.558004
vt 0.194510 0.547639
vt 0.200060 0.542956
vt 0.207530 0.538851
vt 0.216631 0.535483
vt 0.820478 0.562019
vt 0.813938 0.563925
vt 0.807777 0.568298
vt 0.803138 0.573903
vt 0.806907 0.683091
vt 0.807112 0.683347
vt 0.813210 0.687886
vt 0.819714 0.689969
vt 0.826376 0.689568
vt 0.832940 0.686759
vt 0.839153 0.681705
vt 0.844772 0.674645
vt 0.849579 0.665858
vt 0.853383 0.655665
vt 0.856034 0.644422
vt 0.857427 0.632523
vt 0.857506 0.620391
vt 0.856268 0.608462
vt 0.853761 0.597159
vt 0.850086 0.586881
vt 0.845386 0.577984
vt 0.839848 0.570790
vt 0.833688 0.565582
vt 0.827147 0.562600
vt 0.807112 0.683346
vt 0.806907 0.683091
vt 0.803138 0.573903
vt 0.820478 0.562019
vt 0.833688 0.565582
vt 0.839848 0.570790
vt 0.845386 0.577984
vt 0.853761 0.597160
vt 0.856268 0.608462
vt 0.857506 0.620391
vt 0.857427 0.632523
vt 0.856034 0.644422
vt 0.853383 0.655665
vt 0.849579 0.665858
vt 0.844772 0.674644
vt 0.832940 0.686759
vt 0.826376 0.689569
s 0
usemtl Material.002
f 516/358/217 451/359/217 452/360/217 515/361/217
f 515/361/218 452/362/218 453/363/218 517/364/218
f 517/365/219 453/366/219 454/367/219 431/368/219 518/369/219
f 455/370/220 432/371/220 431/368/220 454/372/220
f 456/373/221 433/374/221 432/371/221 455/375/221
f 457/376/222 434/377/222 433/374/222 456/378/222
f 458/379/223 435/380/223 434/377/223 457/381/223
f 459/382/224 436/383/224 435/380/224 458/384/224
f 437/385/225 436/383/225 459/386/225 460/387/225
f 438/388/226 437/385/226 460/389/226 461/390/226
f 439/391/227 438/388/227 461/392/227 462/393/227
f 440/394/228 439/391/228 462/395/228 463/396/228
f 464/397/229 520/398/229 519/399/229 440/394/229 463/400/229
f 520/398/230 464/397/230 465/401/230 521/402/230
f 521/403/231 465/404/231 466/405/231 522/406/231
f 522/406/232 466/407/232 467/408/232 523/409/232
f 523/409/233 467/410/233 468/411/233 524/412/233
f 524/413/234 468/414/234 469/415/234 525/416/234
f 525/416/235 469/417/235 470/418/235 526/419/235
f 526/420/236 470/421/236 471/422/236 527/423/236
f 471/422/237 472/424/237 528/425/237 527/426/237
f 472/427/238 473/428/238 529/429/238 528/430/238
f 473/431/239 474/432/239 530/433/239 529/434/239
f 474/435/240 475/436/240 531/437/240 530/438/240
f 531/439/241 475/440/241 476/441/241 532/442/241
f 532/442/242 476/443/242 477/444/242 533/445/242
f 533/446/243 477/447/243 478/448/243 534/449/243
f 534/449/244 478/450/244 479/451/244 535/452/244
f 479/453/245 480/454/245 536/455/245 535/452/245
f 480/456/246 481/457/246 537/458/246 536/459/246
f 481/460/247 482/461/247 538/462/247 537/458/247
f 482/463/248 451/464/248 516/465/248 538/462/248
f 518/466/249 431/467/249 432/468/249 433/469/249 434/470/249 435/471/249 436/472/249 437/473/249 438/474/249 439/475/249 440/476/249 519/477/249
f 540/361/232 483/478/232 484/479/232 539/358/232
f 541/364/231 485/480/231 483/360/231 540/361/231
f 485/363/230 541/365/230 542/369/230 441/368/230 486/372/230
f 486/367/229 441/368/229 442/371/229 487/375/229
f 442/371/228 443/374/228 488/378/228 487/481/228
f 443/374/227 444/377/227 489/381/227 488/373/227
f 444/377/226 445/380/226 490/482/226 489/376/226
f 445/380/225 446/383/225 491/483/225 490/379/225
f 491/484/224 446/383/224 447/385/224 492/485/224
f 492/387/223 447/385/223 448/388/223 493/486/223
f 493/390/222 448/388/222 449/391/222 494/395/222
f 494/393/221 449/391/221 450/394/221 495/487/221
f 544/398/220 496/488/220 495/487/220 450/394/220 543/399/220
f 545/402/219 497/404/219 496/489/219 544/398/219
f 546/406/218 498/407/218 497/401/218 545/403/218
f 547/409/217 499/410/217 498/405/217 546/406/217
f 500/414/248 499/408/248 547/409/248 548/412/248
f 501/417/247 500/411/247 548/413/247 549/490/247
f 502/491/246 501/415/246 549/490/246 550/420/246
f 503/492/245 502/491/245 550/420/245 551/423/245
f 552/425/244 504/427/244 503/493/244 551/494/244
f 553/429/243 505/495/243 504/424/243 552/425/243
f 554/496/242 506/497/242 505/428/242 553/498/242
f 555/437/241 507/499/241 506/432/241 554/496/241
f 508/500/240 507/436/240 555/439/240 556/501/240
f 509/447/239 508/441/239 556/442/239 557/502/239
f 510/450/238 509/444/238 557/446/238 558/449/238
f 511/453/237 510/448/237 558/449/237 559/503/237
f 560/459/236 512/456/236 511/451/236 559/504/236
f 561/505/235 513/506/235 512/454/235 560/455/235
f 562/462/234 514/507/234 513/457/234 561/508/234
f 539/465/233 484/509/233 514/461/233 562/462/233
f 543/510/249 450/476/249 449/475/249 448/474/249 447/473/249 446/472/249 445/471/249 444/470/249 443/469/249 442/468/249 441/467/249 542/466/249
f 465/511/250 464/512/250 463/513/250 462/514/250 461/515/250 460/516/250 459/517/250 458/518/250 457/519/250 456/520/250 455/521/250 454/522/250 453/523/250 452/524/250 451/525/250 482/526/250 481/527/250 480/528/250 479/529/250 478/530/250 477/531/250 476/532/250 475/533/250 474/534/250 473/535/250 472/536/250 471/537/250 470/538/250 469/539/250 468/540/250 467/541/250 466/542/250
f 514/543/250 484/525/250 483/524/250 485/544/250 486/522/250 487/521/250 488/545/250 489/546/250 490/547/250 491/517/250 492/548/250 493/515/250 494/549/250 495/550/250 496/551/250 497/511/250 498/552/250 499/553/250 500/540/250 501/554/250 502/555/250 503/537/250 504/556/250 505/557/250 506/558/250 507/559/250 508/532/250 509/560/250 510/561/250 511/562/250 512/563/250 513/527/250
f 516/564/251 515/565/251 517/566/251 518/567/251 519/568/251 520/569/251 521/570/251 522/571/251 523/572/251 524/573/251 525/574/251 526/575/251 527/576/251 528/577/251 529/578/251 530/579/251 531/580/251 532/581/251 533/582/251 534/583/251 535/584/251 536/585/251 537/586/251 538/587/251
f 544/588/252 543/589/252 542/590/252 541/566/252 540/565/252 539/591/252 562/587/252 561/592/252 560/593/252 559/594/252 558/583/252 557/595/252 556/596/252 555/597/252 554/598/252 553/599/252 552/600/252 551/601/252 550/602/252 549/574/252 548/603/252 547/604/252 546/571/252 545/570/252
o Cube.001
v -0.361338 -4.016735 -0.182729
v -0.277427 -3.499746 -0.182729
v -0.435393 -4.004715 -1.033368
v -0.351482 -3.487726 -1.033368
v 1.175143 -4.190098 -0.441758
v 1.235011 -3.821244 -0.441758
v 1.122307 -4.181522 -1.048661
v 1.182175 -3.812667 -1.048661
v -0.361338 -4.016735 0.182729
v -0.277427 -3.499746 0.182729
v -0.435393 -4.004715 1.033368
v -0.351482 -3.487726 1.033368
v 1.175143 -4.190098 0.441758
v 1.235011 -3.821244 0.441758
v 1.122307 -4.181522 1.048662
v 1.182175 -3.812667 1.048662
vn -0.9833 0.1596 0.0879
vn -0.0096 0.0016 -1.0000
vn 0.9833 -0.1596 -0.0879
vn 0.1633 -0.0265 0.9862
vn -0.1128 -0.9936 -0.0042
vn 0.2072 0.9783 -0.0042
vn -0.9833 0.1596 -0.0879
vn -0.0096 0.0016 1.0000
vn 0.9833 -0.1596 0.0879
vn 0.1633 -0.0265 -0.9862
vn -0.1128 -0.9936 0.0042
vn 0.2072 0.9783 0.0042
vt 0.375000 0.000000
vt 0.625000 0.000000
vt 0.625000 0.250000
vt 0.375000 0.250000
vt 0.625000 0.500000
vt 0.375000 0.500000
vt 0.625000 0.750000
vt 0.375000 0.750000
vt 0.625000 1.000000
vt 0.375000 1.000000
vt 0.125000 0.500000
vt 0.125000 0.750000
vt 0.875000 0.500000
vt 0.875000 0.750000
s 0
usemtl Material.001
f 563/605/253 564/606/253 566/607/253 565/608/253
f 565/608/254 566/607/254 570/609/254 569/610/254
f 569/610/255 570/609/255 568/611/255 567/612/255
f 567/612/256 568/611/256 564/613/256 563/614/256
f 565/615/257 569/610/257 567/612/257 563/616/257
f 570/609/258 566/617/258 564/618/258 568/611/258
f 571/605/259 573/608/259 574/607/259 572/606/259
f 573/608/260 577/610/260 578/609/260 574/607/260
f 577/610/261 575/612/261 576/611/261 578/609/261
f 575/612/262 571/614/262 572/613/262 576/611/262
f 573/615/263 571/616/263 575/612/263 577/610/263
f 578/609/264 576/611/264 572/618/264 574/617/264
o Cylinder.002
v -0.137891 0.541314 -3.925922
v -0.106783 0.562246 -3.926044
v -0.072189 0.576706 -3.926105
v -0.035438 0.584139 -3.926102
v 0.002056 0.584261 -3.926035
v 0.038854 0.577066 -3.925906
v 0.073541 0.562830 -3.925720
v 0.104784 0.542100 -3.925486
v 0.131381 0.515674 -3.925211
v 0.152313 0.484567 -3.924906
v 0.166773 0.449974 -3.924584
v 0.174206 0.413225 -3.924255
v 0.174327 0.375732 -3.923934
v 0.167131 0.338936 -3.923631
v 0.152894 0.304250 -3.923360
v 0.132164 0.273008 -3.923130
v 0.105736 0.246410 -3.922951
v 0.074628 0.225479 -3.922828
v 0.040034 0.211019 -3.922767
v 0.003283 0.203585 -3.922771
v -0.034212 0.203464 -3.922838
v -0.071009 0.210659 -3.922967
v -0.105696 0.224896 -3.923153
v -0.136939 0.245625 -3.923387
v -0.163537 0.272050 -3.923662
v -0.184468 0.303158 -3.923966
v -0.198928 0.337750 -3.924290
v -0.206361 0.374499 -3.924618
v -0.206482 0.411993 -3.924939
v -0.199286 0.448789 -3.925241
v -0.185049 0.483475 -3.925513
v -0.164319 0.514717 -3.925743
v -0.137891 0.541314 3.925922
v -0.106783 0.562246 3.926044
v -0.072189 0.576706 3.926105
v -0.035438 0.584139 3.926102
v 0.002056 0.584261 3.926035
v 0.038854 0.577066 3.925906
v 0.073541 0.562830 3.925720
v 0.104784 0.542100 3.925486
v 0.131381 0.515674 3.925211
v 0.152313 0.484567 3.924906
v 0.166773 0.449974 3.924584
v 0.174206 0.413225 3.924255
v 0.174327 0.375732 3.923934
v 0.167131 0.338936 3.923631
v 0.152894 0.304250 3.923360
v 0.132164 0.273008 3.923130
v 0.105736 0.246410 3.922951
v 0.074628 0.225479 3.922828
v 0.040034 0.211019 3.922767
v 0.003283 0.203585 3.922771
v -0.034212 0.203464 3.922838
v -0.071009 0.210659 3.922967
v -0.105696 0.224896 3.923153
v -0.136939 0.245625 3.923387
v -0.163537 0.272050 3.923662
v -0.184468 0.303158 3.923966
v -0.198928 0.337750 3.924290
v -0.206361 0.374499 3.924618
v -0.206482 0.411993 3.924939
v -0.199286 0.448789 3.925241
v -0.185049 0.483475 3.925513
v -0.164319 0.514717 3.925743
v -0.142898 0.564826 -1.181710
v -0.111790 0.585758 -1.181710
v -0.077196 0.600219 -1.181710
v -0.040445 0.607652 -1.181710
v -0.002950 0.607773 -1.181710
v 0.033847 0.600577 -1.181710
v 0.068534 0.586339 -1.181710
v 0.099778 0.565608 -1.181710
v 0.126376 0.539180 -1.181710
v 0.147308 0.508070 -1.181710
v 0.161769 0.473474 -1.181710
v 0.169203 0.436722 -1.181710
v 0.169324 0.399226 -1.181710
v 0.162128 0.362427 -1.181710
v 0.147892 0.327739 -1.181710
v 0.127162 0.296495 -1.181710
v 0.100735 0.269896 -1.181710
v 0.069627 0.248964 -1.181710
v 0.035033 0.234503 -1.181710
v -0.001718 0.227070 -1.181710
v -0.039213 0.226949 -1.181710
v -0.076010 0.234145 -1.181710
v -0.110697 0.248383 -1.181710
v -0.141941 0.269114 -1.181710
v -0.168539 0.295542 -1.181710
v -0.189471 0.326652 -1.181710
v -0.203932 0.361248 -1.181710
v -0.211366 0.398000 -1.181710
v -0.211487 0.435496 -1.181710
v -0.204291 0.472295 -1.181710
v -0.190055 0.506983 -1.181710
v -0.169325 0.538227 -1.181710
v -0.111790 0.585758 1.181710
v -0.142898 0.564826 1.181710
v -0.077196 0.600219 1.181710
v -0.040445 0.607652 1.181710
v -0.002950 0.607773 1.181710
v 0.033847 0.600577 1.181710
v 0.068534 0.586339 1.181710
v 0.099778 0.565608 1.181710
v 0.126376 0.539180 1.181710
v 0.147308 0.508070 1.181710
v 0.161769 0.473474 1.181710
v 0.169203 0.436722 1.181710
v 0.169324 0.399226 1.181710
v 0.162128 0.362427 1.181710
v 0.147892 0.327739 1.181710
v 0.127162 0.296495 1.181710
v 0.100735 0.269896 1.181710
v 0.069627 0.248964 1.181710
v 0.035033 0.234503 1.181710
v -0.001718 0.227070 1.181710
v -0.039213 0.226949 1.181710
v -0.076010 0.234145 1.181710
v -0.110697 0.248383 1.181710
v -0.141941 0.269114 1.181710
v -0.168539 0.295542 1.181710
v -0.189471 0.326652 1.181710
v -0.203932 0.361248 1.181710
v -0.211366 0.398000 1.181710
v -0.211487 0.435496 1.181710
v -0.204291 0.472295 1.181710
v -0.190055 0.506983 1.181710
v -0.169325 0.538227 1.181710
vn -0.5582 0.8296 -0.0081
vn -0.3857 0.9226 -0.0086
vn -0.1983 0.9801 -0.0088
vn -0.0032 1.0000 -0.0086
vn 0.1919 0.9814 -0.0081
vn 0.3797 0.9251 -0.0072
vn 0.5529 0.8332 -0.0061
vn 0.7048 0.7094 -0.0048
vn 0.8297 0.5582 -0.0033
vn 0.9226 0.3857 -0.0016
vn 0.9802 0.1983 0.0001
vn 1.0000 0.0032 0.0018
vn 0.9814 -0.1919 0.0034
vn 0.9251 -0.3797 0.0049
vn 0.8333 -0.5529 0.0063
vn 0.7094 -0.7048 0.0073
vn 0.5582 -0.8296 0.0081
vn 0.3857 -0.9226 0.0086
vn 0.1982 -0.9801 0.0088
vn 0.0032 -1.0000 0.0086
vn -0.1919 -0.9814 0.0081
vn -0.3797 -0.9251 0.0072
vn -0.5529 -0.8332 0.0061
vn -0.7048 -0.7094 0.0048
vn -0.8297 -0.5582 0.0033
vn -0.9226 -0.3857 0.0016
vn -0.9802 -0.1983 -0.0001
vn -1.0000 -0.0032 -0.0018
vn -0.9814 0.1919 -0.0034
vn -0.9251 0.3797 -0.0049
vn -0.8333 0.5529 -0.0063
vn -0.7094 0.7048 -0.0073
vn 0.0018 -0.0086 -1.0000
vn -0.5582 0.8296 0.0081
vn -0.3857 0.9226 0.0086
vn -0.1983 0.9801 0.0088
vn -0.0032 1.0000 0.0086
vn 0.1919 0.9814 0.0081
vn 0.3797 0.9251 0.0072
vn 0.5529 0.8332 0.0061
vn 0.7048 0.7094 0.0048
vn 0.8297 0.5582 0.0033
vn 0.9226 0.3857 0.0016
vn 0.9802 0.1983 -0.0001
vn 1.0000 0.0032 -0.0018
vn 0.9814 -0.1919 -0.0034
vn 0.9251 -0.3797 -0.0049
vn 0.8333 -0.5529 -0.0063
vn 0.7094 -0.7048 -0.0073
vn 0.5582 -0.8296 -0.0081
vn 0.3857 -0.9226 -0.0086
vn 0.1982 -0.9801 -0.0088
vn 0.0032 -1.0000 -0.0086
vn -0.1919 -0.9814 -0.0081
vn -0.3797 -0.9251 -0.0072
vn -0.5529 -0.8332 -0.0061
vn -0.7048 -0.7094 -0.0048
vn -0.8297 -0.5582 -0.0033
vn -0.9226 -0.3857 -0.0016
vn -0.9802 -0.1983 0.0001
vn -1.0000 -0.0032 0.0018
vn -0.9814 0.1919 0.0034
vn -0.9251 0.3797 0.0049
vn -0.8333 0.5529 0.0063
vn -0.7094 0.7048 0.0073
vn 0.0018 -0.0086 1.0000
vn -0.0000 -0.0000 1.0000
vn -0.0000 -0.0000 -1.0000
vt 0.968750 0.976070
vt 0.968750 0.500000
vt 1.000000 0.500000
vt 1.000000 0.976049
vt 0.937500 0.976080
vt 0.937500 0.500000
vt 0.968750 0.976070
vt 0.906250 0.976080
vt 0.906250 0.500000
vt 0.875000 0.976068
vt 0.875000 0.500000
vt 0.906250 0.976080
vt 0.843750 0.976046
vt 0.843750 0.500000
vt 0.812500 0.976014
vt 0.812500 0.500000
vt 0.843750 0.976046
vt 0.781250 0.975973
vt 0.781250 0.500000
vt 0.812500 0.976014
vt 0.750000 0.975925
vt 0.750000 0.500000
vt 0.718750 0.975872
vt 0.718750 0.500000
vt 0.687500 0.975816
vt 0.687500 0.500000
vt 0.656250 0.975759
vt 0.656250 0.500000
vt 0.625000 0.500000
vt 0.656250 0.975760
vt 0.625000 0.975704
vt 0.593750 0.975651
vt 0.593750 0.500000
vt 0.562500 0.975604
vt 0.562500 0.500000
vt 0.593750 0.975651
vt 0.531250 0.975564
vt 0.531250 0.500000
vt 0.500000 0.975533
vt 0.500000 0.500000
vt 0.468750 0.975512
vt 0.468750 0.500000
vt 0.437500 0.975501
vt 0.437500 0.500000
vt 0.406250 0.975502
vt 0.406250 0.500000
vt 0.437500 0.975501
vt 0.375000 0.975514
vt 0.375000 0.500000
vt 0.406250 0.975502
vt 0.343750 0.975536
vt 0.343750 0.500000
vt 0.375000 0.975514
vt 0.312500 0.975568
vt 0.312500 0.500000
vt 0.343750 0.975536
vt 0.281250 0.975609
vt 0.281250 0.500000
vt 0.250000 0.975657
vt 0.250000 0.500000
vt 0.218750 0.975709
vt 0.218750 0.500000
vt 0.187500 0.975765
vt 0.187500 0.500000
vt 0.156250 0.975822
vt 0.156250 0.500000
vt 0.125000 0.975878
vt 0.125000 0.500000
vt 0.156250 0.975822
vt 0.093750 0.975931
vt 0.093750 0.500000
vt 0.125000 0.975878
vt 0.062500 0.975978
vt 0.062500 0.500000
vt 0.031250 0.976017
vt 0.031250 0.500000
vt 0.000000 0.976049
vt 0.000000 0.500000
vt 0.031250 0.976017
vt 0.703178 0.485388
vt 0.750000 0.490000
vt 0.796822 0.485388
vt 0.841844 0.471731
vt 0.883337 0.449553
vt 0.919706 0.419706
vt 0.949553 0.383337
vt 0.971731 0.341844
vt 0.985388 0.296822
vt 0.990000 0.250000
vt 0.985388 0.203178
vt 0.971731 0.158156
vt 0.949553 0.116663
vt 0.919706 0.080294
vt 0.883337 0.050447
vt 0.841844 0.028269
vt 0.796822 0.014612
vt 0.750000 0.010000
vt 0.703178 0.014612
vt 0.658156 0.028269
vt 0.616663 0.050447
vt 0.580294 0.080294
vt 0.550447 0.116663
vt 0.528269 0.158156
vt 0.514612 0.203178
vt 0.510000 0.250000
vt 0.514612 0.296822
vt 0.528269 0.341844
vt 0.550447 0.383337
vt 0.580294 0.419706
vt 0.616663 0.449553
vt 0.658156 0.471731
vt 1.000000 0.976049
vt 0.937500 0.976080
vt 0.875000 0.976068
vt 0.781250 0.975973
vt 0.687500 0.975816
vt 0.562500 0.975604
vt 0.531250 0.975564
vt 0.562500 0.975604
vt 0.468750 0.975512
vt 0.468750 0.975512
vt 0.343750 0.975536
vt 0.281250 0.975609
vt 0.312500 0.975568
vt 0.250000 0.975657
vt 0.156250 0.975822
vt 0.093750 0.975931
vt 0.000000 0.976049
vt 0.529240 0.414687
vt 0.531701 0.412943
vt 0.534017 0.409552
vt 0.536100 0.404642
vt 0.537870 0.398403
vt 0.539258 0.391075
vt 0.540211 0.382939
vt 0.540693 0.374308
vt 0.540685 0.365513
vt 0.540187 0.356893
vt 0.539219 0.348779
vt 0.537817 0.341483
vt 0.536036 0.335284
vt 0.533944 0.330422
vt 0.531622 0.327083
vt 0.529158 0.325395
vt 0.526648 0.325423
vt 0.524187 0.327167
vt 0.521871 0.330559
vt 0.519788 0.335469
vt 0.518018 0.341707
vt 0.516630 0.349036
vt 0.515677 0.357172
vt 0.515195 0.365803
vt 0.515203 0.374597
vt 0.515701 0.383217
vt 0.516669 0.391331
vt 0.518071 0.398628
vt 0.519852 0.404826
vt 0.521943 0.409689
vt 0.524266 0.413028
vt 0.526730 0.414716
vt 0.521871 0.330559
vt 0.524187 0.327167
vt 0.531622 0.327083
vt 0.536036 0.335284
vt 0.540187 0.356894
vt 0.540693 0.374308
vt 0.540211 0.382939
vt 0.539258 0.391075
vt 0.534017 0.409552
vt 0.531701 0.412943
vt 0.529240 0.414687
vt 0.524266 0.413028
vt 0.521943 0.409689
vt 0.518071 0.398628
vt 0.516669 0.391331
vt 0.516630 0.349036
s 0
usemtl Material.002
f 644/619/265 580/620/265 579/621/265 643/622/265
f 645/623/266 581/624/266 580/620/266 644/625/266
f 646/626/267 582/627/267 581/624/267 645/623/267
f 647/628/268 583/629/268 582/627/268 646/630/268
f 648/631/269 584/632/269 583/629/269 647/628/269
f 649/633/270 585/634/270 584/632/270 648/635/270
f 650/636/271 586/637/271 585/634/271 649/638/271
f 651/639/272 587/640/272 586/637/272 650/636/272
f 652/641/273 588/642/273 587/640/273 651/639/273
f 653/643/274 589/644/274 588/642/274 652/641/274
f 654/645/275 590/646/275 589/644/275 653/643/275
f 591/647/276 590/646/276 654/648/276 655/649/276
f 656/650/277 592/651/277 591/647/277 655/649/277
f 657/652/278 593/653/278 592/651/278 656/654/278
f 658/655/279 594/656/279 593/653/279 657/652/279
f 659/657/280 595/658/280 594/656/280 658/655/280
f 660/659/281 596/660/281 595/658/281 659/657/281
f 661/661/282 597/662/282 596/660/282 660/659/282
f 662/663/283 598/664/283 597/662/283 661/665/283
f 663/666/284 599/667/284 598/664/284 662/668/284
f 664/669/285 600/670/285 599/667/285 663/671/285
f 665/672/286 601/673/286 600/670/286 664/674/286
f 666/675/287 602/676/287 601/673/287 665/672/287
f 667/677/288 603/678/288 602/676/288 666/675/288
f 603/678/289 667/677/289 668/679/289 604/680/289
f 604/680/290 668/679/290 669/681/290 605/682/290
f 605/682/291 669/681/291 670/683/291 606/684/291
f 671/685/292 607/686/292 606/684/292 670/687/292
f 672/688/293 608/689/293 607/686/293 671/690/293
f 673/691/294 609/692/294 608/689/294 672/688/294
f 674/693/295 610/694/295 609/692/295 673/691/295
f 643/695/296 579/696/296 610/694/296 674/697/296
f 610/698/297 579/699/297 580/700/297 581/701/297 582/702/297 583/703/297 584/704/297 585/705/297 586/706/297 587/707/297 588/708/297 589/709/297 590/710/297 591/711/297 592/712/297 593/713/297 594/714/297 595/715/297 596/716/297 597/717/297 598/718/297 599/719/297 600/720/297 601/721/297 602/722/297 603/723/297 604/724/297 605/725/297 606/726/297 607/727/297 608/728/297 609/729/297
f 611/621/298 612/620/298 675/625/298 676/730/298
f 612/620/299 613/624/299 677/623/299 675/619/299
f 613/624/300 614/627/300 678/630/300 677/731/300
f 614/627/301 615/629/301 679/732/301 678/626/301
f 615/629/302 616/632/302 680/635/302 679/628/302
f 616/632/303 617/634/303 681/633/303 680/635/303
f 617/634/304 618/637/304 682/636/304 681/633/304
f 618/637/305 619/640/305 683/639/305 682/733/305
f 683/639/306 619/640/306 620/642/306 684/641/306
f 620/642/307 621/644/307 685/643/307 684/641/307
f 621/644/308 622/646/308 686/648/308 685/734/308
f 622/646/309 623/647/309 687/649/309 686/648/309
f 623/647/310 624/651/310 688/654/310 687/649/310
f 624/651/311 625/653/311 689/735/311 688/650/311
f 625/653/312 626/656/312 690/736/312 689/737/312
f 626/656/313 627/658/313 691/657/313 690/655/313
f 627/658/314 628/660/314 692/738/314 691/657/314
f 628/660/315 629/662/315 693/665/315 692/739/315
f 629/662/316 630/664/316 694/668/316 693/661/316
f 630/664/317 631/667/317 695/671/317 694/663/317
f 631/667/318 632/670/318 696/740/318 695/671/318
f 632/670/319 633/673/319 697/672/319 696/669/319
f 633/673/320 634/676/320 698/741/320 697/742/320
f 634/676/321 635/678/321 699/677/321 698/675/321
f 635/678/322 636/680/322 700/679/322 699/743/322
f 636/680/323 637/682/323 701/681/323 700/679/323
f 637/682/324 638/684/324 702/683/324 701/681/324
f 638/684/325 639/686/325 703/690/325 702/744/325
f 639/686/326 640/689/326 704/688/326 703/685/326
f 640/689/327 641/692/327 705/691/327 704/745/327
f 641/692/328 642/694/328 706/697/328 705/691/328
f 642/694/329 611/696/329 676/746/329 706/697/329
f 640/728/330 639/727/330 638/726/330 637/725/330 636/724/330 635/723/330 634/722/330 633/721/330 632/720/330 631/719/330 630/718/330 629/717/330 628/716/330 627/715/330 626/714/330 625/713/330 624/712/330 623/711/330 622/710/330 621/709/330 620/708/330 619/707/330 618/706/330 617/705/330 616/704/330 615/703/330 614/702/330 613/701/330 612/700/330 611/699/330 642/698/330 641/729/330
f 654/747/331 653/748/331 652/749/331 651/750/331 650/751/331 649/752/331 648/753/331 647/754/331 646/755/331 645/756/331 644/757/331 643/758/331 674/759/331 673/760/331 672/761/331 671/762/331 670/763/331 669/764/331 668/765/331 667/766/331 666/767/331 665/768/331 664/769/331 663/770/331 662/771/331 661/772/331 660/773/331 659/774/331 658/775/331 657/776/331 656/777/331 655/778/331
f 698/767/332 699/766/332 700/779/332 701/780/332 702/763/332 703/762/332 704/781/332 705/760/332 706/782/332 676/758/332 675/757/332 677/783/332 678/755/332 679/784/332 680/785/332 681/786/332 682/751/332 683/750/332 684/787/332 685/788/332 686/789/332 687/778/332 688/790/332 689/791/332 690/775/332 691/792/332 692/793/332 693/772/332 694/771/332 695/770/332 696/769/332 697/794/332
